<svg width="13" height="11" viewBox="0 0 13 11" fill="none" xmlns="http://www.w3.org/2000/svg">
    <path fill-rule="evenodd" clip-rule="evenodd"
        d="M1.625 1.57143C1.19402 1.57143 0.780698 1.73699 0.475951 2.03169C0.171205 2.32639 0 2.72609 0 3.14286V9.42857C0 9.84534 0.171205 10.245 0.475951 10.5397C0.780698 10.8344 1.19402 11 1.625 11H11.375C11.806 11 12.2193 10.8344 12.524 10.5397C12.8288 10.245 13 9.84534 13 9.42857V3.14286C13 2.72609 12.8288 2.32639 12.524 2.03169C12.2193 1.73699 11.806 1.57143 11.375 1.57143H10.0864C9.8709 1.57138 9.66428 1.48857 9.51194 1.34121L8.60113 0.460429C8.29645 0.165708 7.88319 8.90016e-05 7.45225 0H5.54775C5.11681 8.90016e-05 4.70355 0.165708 4.39888 0.460429L3.48806 1.34121C3.33572 1.48857 3.1291 1.57138 2.91363 1.57143H1.625ZM6.5 8.64286C6.8201 8.64286 7.13706 8.58189 7.43279 8.46343C7.72852 8.34497 7.99723 8.17135 8.22357 7.95247C8.44992 7.73359 8.62946 7.47374 8.75196 7.18775C8.87445 6.90177 8.9375 6.59526 8.9375 6.28571C8.9375 5.97617 8.87445 5.66966 8.75196 5.38367C8.62946 5.09769 8.44992 4.83784 8.22357 4.61896C7.99723 4.40008 7.72852 4.22646 7.43279 4.108C7.13706 3.98954 6.8201 3.92857 6.5 3.92857C5.85353 3.92857 5.23355 4.17691 4.77643 4.61896C4.31931 5.06101 4.0625 5.66056 4.0625 6.28571C4.0625 6.91087 4.31931 7.51042 4.77643 7.95247C5.23355 8.39452 5.85353 8.64286 6.5 8.64286Z"
        fill="#1890FF" />
</svg>
