<svg width="17" height="17" viewBox="0 0 17 17" fill="none" xmlns="http://www.w3.org/2000/svg">
<path d="M8 1.15625C8.28125 0.96875 8.6875 0.96875 8.96875 1.15625L14.3438 4.21875L14.4688 4.25V4.28125L15.9688 5.15625C16.375 5.375 16.5625 5.84375 16.4375 6.28125C16.3438 6.71875 15.9375 7 15.4688 7H1.46875C1.03125 7 0.625 6.71875 0.53125 6.28125C0.40625 5.84375 0.59375 5.375 1 5.15625L2.46875 4.28125V4.25L2.625 4.21875L8 1.15625ZM2.5 8H4.5V14H5.75V8H7.75V14H9.25V8H11.25V14H12.5V8H14.5V14.1562C14.5 14.1562 14.5312 14.1562 14.5312 14.1875L16.0312 15.1875C16.4062 15.4375 16.5625 15.875 16.4375 16.3125C16.3125 16.7188 15.9375 17 15.5 17H1.5C1.03125 17 0.65625 16.7188 0.53125 16.3125C0.40625 15.875 0.5625 15.4375 0.9375 15.1875L2.4375 14.1875C2.4375 14.1562 2.46875 14.1562 2.5 14.1562V8Z" fill="black"/>
</svg>
