<svg width="29" height="30" viewBox="0 0 29 30" fill="none" xmlns="http://www.w3.org/2000/svg">
<g clip-path="url(#clip0_2077_25543)">
<path d="M9.96875 10.5591C10.2091 10.5591 10.4396 10.6546 10.6096 10.8245C10.7795 10.9945 10.875 11.225 10.875 11.4653V22.3403C10.875 22.5807 10.7795 22.8112 10.6096 22.9811C10.4396 23.1511 10.2091 23.2466 9.96875 23.2466C9.7284 23.2466 9.49789 23.1511 9.32793 22.9811C9.15798 22.8112 9.0625 22.5807 9.0625 22.3403V11.4653C9.0625 11.225 9.15798 10.9945 9.32793 10.8245C9.49789 10.6546 9.7284 10.5591 9.96875 10.5591ZM14.5 10.5591C14.7404 10.5591 14.9709 10.6546 15.1408 10.8245C15.3108 10.9945 15.4062 11.225 15.4062 11.4653V22.3403C15.4062 22.5807 15.3108 22.8112 15.1408 22.9811C14.9709 23.1511 14.7404 23.2466 14.5 23.2466C14.2596 23.2466 14.0291 23.1511 13.8592 22.9811C13.6892 22.8112 13.5938 22.5807 13.5938 22.3403V11.4653C13.5938 11.225 13.6892 10.9945 13.8592 10.8245C14.0291 10.6546 14.2596 10.5591 14.5 10.5591ZM19.9375 11.4653C19.9375 11.225 19.842 10.9945 19.6721 10.8245C19.5021 10.6546 19.2716 10.5591 19.0312 10.5591C18.7909 10.5591 18.5604 10.6546 18.3904 10.8245C18.2205 10.9945 18.125 11.225 18.125 11.4653V22.3403C18.125 22.5807 18.2205 22.8112 18.3904 22.9811C18.5604 23.1511 18.7909 23.2466 19.0312 23.2466C19.2716 23.2466 19.5021 23.1511 19.6721 22.9811C19.842 22.8112 19.9375 22.5807 19.9375 22.3403V11.4653Z" fill="#E03131"/>
<path fill-rule="evenodd" clip-rule="evenodd" d="M26.2812 6.02783C26.2812 6.50854 26.0903 6.96955 25.7504 7.30946C25.4105 7.64937 24.9495 7.84033 24.4688 7.84033H23.5625V24.1528C23.5625 25.1142 23.1806 26.0363 22.5008 26.7161C21.8209 27.3959 20.8989 27.7778 19.9375 27.7778H9.0625C8.10109 27.7778 7.17906 27.3959 6.49924 26.7161C5.81942 26.0363 5.4375 25.1142 5.4375 24.1528V7.84033H4.53125C4.05055 7.84033 3.58953 7.64937 3.24962 7.30946C2.90971 6.96955 2.71875 6.50854 2.71875 6.02783V4.21533C2.71875 3.73463 2.90971 3.27361 3.24962 2.9337C3.58953 2.59379 4.05055 2.40283 4.53125 2.40283H10.875C10.875 1.92213 11.066 1.46111 11.4059 1.1212C11.7458 0.781291 12.2068 0.590332 12.6875 0.590332L16.3125 0.590332C16.7932 0.590332 17.2542 0.781291 17.5941 1.1212C17.934 1.46111 18.125 1.92213 18.125 2.40283H24.4688C24.9495 2.40283 25.4105 2.59379 25.7504 2.9337C26.0903 3.27361 26.2812 3.73463 26.2812 4.21533V6.02783ZM7.46387 7.84033L7.25 7.94727V24.1528C7.25 24.6335 7.44096 25.0946 7.78087 25.4345C8.12078 25.7744 8.5818 25.9653 9.0625 25.9653H19.9375C20.4182 25.9653 20.8792 25.7744 21.2191 25.4345C21.559 25.0946 21.75 24.6335 21.75 24.1528V7.94727L21.5361 7.84033H7.46387ZM4.53125 6.02783V4.21533H24.4688V6.02783H4.53125Z" fill="#E03131"/>
</g>
<defs>
<clipPath id="clip0_2077_25543">
<rect width="29" height="29" fill="white" transform="translate(0 0.590332)"/>
</clipPath>
</defs>
</svg>
