<svg width="18" height="21" viewBox="0 0 18 21" fill="none" xmlns="http://www.w3.org/2000/svg">
<path fill-rule="evenodd" clip-rule="evenodd" d="M17.9375 4.125C17.9375 4.48967 17.7926 4.83941 17.5348 5.09727C17.2769 5.35513 16.9272 5.5 16.5625 5.5H15.875V17.875C15.875 18.6043 15.5853 19.3038 15.0695 19.8195C14.5538 20.3353 13.8543 20.625 13.125 20.625H4.875C4.14565 20.625 3.44618 20.3353 2.93046 19.8195C2.41473 19.3038 2.125 18.6043 2.125 17.875V5.5H1.4375C1.07283 5.5 0.723091 5.35513 0.465228 5.09727C0.207366 4.83941 0.0625 4.48967 0.0625 4.125V2.75C0.0625 2.38533 0.207366 2.03559 0.465228 1.77773C0.723091 1.51987 1.07283 1.375 1.4375 1.375H6.25C6.25 1.01033 6.39487 0.660591 6.65273 0.402728C6.91059 0.144866 7.26033 0 7.625 0L10.375 0C10.7397 0 11.0894 0.144866 11.3473 0.402728C11.6051 0.660591 11.75 1.01033 11.75 1.375H16.5625C16.9272 1.375 17.2769 1.51987 17.5348 1.77773C17.7926 2.03559 17.9375 2.38533 17.9375 2.75V4.125ZM3.66225 5.5L3.5 5.58113V17.875C3.5 18.2397 3.64487 18.5894 3.90273 18.8473C4.16059 19.1051 4.51033 19.25 4.875 19.25H13.125C13.4897 19.25 13.8394 19.1051 14.0973 18.8473C14.3551 18.5894 14.5 18.2397 14.5 17.875V5.58113L14.3377 5.5H3.66225ZM1.4375 4.125V2.75H16.5625V4.125H1.4375Z" fill="#868E96"/>
</svg>
