<svg width="17" height="16" viewBox="0 0 17 16" fill="none" xmlns="http://www.w3.org/2000/svg">
<path d="M16.5 2.5C16.5 3.09375 16.0312 3.59375 15.2812 4C14.375 4.53125 13.0312 4.875 11.4688 4.96875C11.3438 4.9375 11.2188 4.875 11.125 4.8125C9.875 4.3125 8.25 4 6.5 4C6.21875 4 5.96875 4.03125 5.71875 4.03125L5.6875 4C4.9375 3.59375 4.5 3.09375 4.5 2.5C4.5 1.125 7.15625 0 10.5 0C13.8125 0 16.5 1.125 16.5 2.5ZM5.5 5.0625C5.8125 5.03125 6.15625 5 6.5 5C8.4375 5 10.1562 5.40625 11.25 6C12.0312 6.40625 12.5 6.9375 12.5 7.5C12.5 7.625 12.4688 7.75 12.4062 7.875C12.2812 8.28125 11.875 8.65625 11.3125 9H11.2812C10.1875 9.625 8.4375 10 6.5 10C4.625 10 2.96875 9.65625 1.84375 9.09375C1.78125 9.0625 1.75 9.03125 1.6875 9C0.9375 8.59375 0.5 8.0625 0.5 7.5C0.5 6.4375 2.15625 5.5 4.5 5.15625C4.8125 5.09375 5.15625 5.0625 5.5 5.0625ZM12.7188 5.84375C13.625 5.71875 14.4375 5.5 15.125 5.21875C15.625 5 16.0938 4.71875 16.5 4.40625V5.5C16.5 6.125 15.9688 6.6875 15.125 7.09375C14.6562 7.34375 14.0938 7.53125 13.4688 7.6875C13.4688 7.625 13.5 7.5625 13.5 7.5C13.5 6.84375 13.1562 6.28125 12.7188 5.84375ZM12.5 10.5C12.5 11.0625 12.0312 11.5938 11.2812 12C11.2188 12.0312 11.1875 12.0625 11.125 12.0938C10 12.6562 8.34375 13 6.5 13C4.53125 13 2.78125 12.625 1.6875 12C0.9375 11.5938 0.5 11.0625 0.5 10.5V9.40625C0.875 9.71875 1.34375 10 1.84375 10.2188C3.09375 10.7188 4.71875 11 6.5 11C8.25 11 9.875 10.7188 11.125 10.2188C11.3438 10.0938 11.5938 10 11.8125 9.875C12 9.75 12.1875 9.625 12.3438 9.5C12.4062 9.46875 12.4375 9.4375 12.5 9.40625V10.5ZM13.5 8.71875C14.0625 8.5625 14.625 8.40625 15.125 8.21875C15.625 8 16.0938 7.71875 16.5 7.40625V8.5C16.5 8.84375 16.3438 9.15625 16.0312 9.46875C15.5 10 14.625 10.4062 13.4688 10.6875C13.4688 10.625 13.5 10.5625 13.5 10.5V8.71875ZM6.5 14C8.25 14 9.875 13.7188 11.125 13.2188C11.625 13 12.0938 12.7188 12.5 12.4062V13.5C12.5 14.9062 9.8125 16 6.5 16C3.15625 16 0.5 14.9062 0.5 13.5V12.4062C0.875 12.7188 1.34375 13 1.84375 13.2188C3.09375 13.7188 4.71875 14 6.5 14Z" fill="black"/>
</svg>
