<svg width="20" height="18" viewBox="0 0 20 18" fill="none" xmlns="http://www.w3.org/2000/svg">
    <path
        d="M20 1.41671C20 0.818399 19.515 0.333374 18.9167 0.333374H1.08333C0.485023 0.333374 0 0.818399 0 1.41671C0 2.01502 0.485023 2.50004 1.08333 2.50004H18.9167C19.515 2.50004 20 2.01502 20 1.41671ZM20 9.00004C20 8.40173 19.515 7.91671 18.9167 7.91671H7.75C7.15169 7.91671 6.66667 8.40173 6.66667 9.00004C6.66667 9.59835 7.15169 10.0834 7.75 10.0834H18.9167C19.515 10.0834 20 9.59835 20 9.00004ZM20 16.5834C20 15.9851 19.515 15.5 18.9167 15.5H1.08333C0.485023 15.5 0 15.9851 0 16.5834C0 17.1817 0.485023 17.6667 1.08333 17.6667H18.9167C19.515 17.6667 20 17.1817 20 16.5834Z"
        fill="#868E96" />
</svg>
