<svg width="26" height="26" viewBox="0 0 26 26" fill="none" xmlns="http://www.w3.org/2000/svg">
<path d="M13 0.866724L13.5633 0.208057C13.4064 0.0737849 13.2066 0 13 0C12.7934 0 12.5936 0.0737849 12.4367 0.208057L13 0.866724ZM0.866667 11.2667L0.303333 10.6081L0 10.8681V11.2667H0.866667ZM9.53333 25.1334V26.0001C9.76319 26.0001 9.98363 25.9087 10.1462 25.7462C10.3087 25.5837 10.4 25.3632 10.4 25.1334H9.53333ZM16.4667 25.1334H15.6C15.6 25.3632 15.6913 25.5837 15.8538 25.7462C16.0164 25.9087 16.2368 26.0001 16.4667 26.0001V25.1334ZM25.1333 11.2667H26V10.8681L25.6967 10.6081L25.1333 11.2667ZM2.6 26.0001H9.53333V24.2667H2.6V26.0001ZM25.6967 10.6081L13.5633 0.208057L12.4367 1.52539L24.57 11.9254L25.6967 10.6081ZM12.4367 0.208057L0.303333 10.6081L1.43 11.9254L13.5633 1.52539L12.4367 0.208057ZM10.4 25.1334V19.9334H8.66667V25.1334H10.4ZM15.6 19.9334V25.1334H17.3333V19.9334H15.6ZM16.4667 26.0001H23.4V24.2667H16.4667V26.0001ZM26 23.4001V11.2667H24.2667V23.4001H26ZM0 11.2667V23.4001H1.73333V11.2667H0ZM13 17.3334C13.6896 17.3334 14.3509 17.6073 14.8385 18.0949C15.3261 18.5825 15.6 19.2438 15.6 19.9334H17.3333C17.3333 18.7841 16.8768 17.6819 16.0641 16.8693C15.2515 16.0566 14.1493 15.6001 13 15.6001V17.3334ZM13 15.6001C11.8507 15.6001 10.7485 16.0566 9.93587 16.8693C9.12321 17.6819 8.66667 18.7841 8.66667 19.9334H10.4C10.4 19.2438 10.6739 18.5825 11.1615 18.0949C11.6491 17.6073 12.3104 17.3334 13 17.3334V15.6001ZM23.4 26.0001C24.0896 26.0001 24.7509 25.7261 25.2385 25.2385C25.7261 24.7509 26 24.0896 26 23.4001H24.2667C24.2667 23.6299 24.1754 23.8503 24.0128 24.0129C23.8503 24.1754 23.6299 24.2667 23.4 24.2667V26.0001ZM2.6 24.2667C2.37015 24.2667 2.14971 24.1754 1.98717 24.0129C1.82464 23.8503 1.73333 23.6299 1.73333 23.4001H0C0 24.0896 0.273928 24.7509 0.761522 25.2385C1.24912 25.7261 1.91044 26.0001 2.6 26.0001V24.2667Z" fill="#868E96"/>
</svg>
