<svg width="26" height="26" viewBox="0 0 26 26" fill="none" xmlns="http://www.w3.org/2000/svg">
<path d="M12.9994 5.30266C14.4164 5.30266 15.5652 4.15392 15.5652 2.73687C15.5652 1.31982 14.4164 0.171082 12.9994 0.171082C11.5823 0.171082 10.4336 1.31982 10.4336 2.73687C10.4336 4.15392 11.5823 5.30266 12.9994 5.30266Z" fill="#868E96"/>
<path d="M12.9994 15.5658C14.4164 15.5658 15.5652 14.417 15.5652 13C15.5652 11.5829 14.4164 10.4342 12.9994 10.4342C11.5823 10.4342 10.4336 11.5829 10.4336 13C10.4336 14.417 11.5823 15.5658 12.9994 15.5658Z" fill="#868E96"/>
<path d="M12.9994 25.829C14.4164 25.829 15.5652 24.6802 15.5652 23.2632C15.5652 21.8461 14.4164 20.6974 12.9994 20.6974C11.5823 20.6974 10.4336 21.8461 10.4336 23.2632C10.4336 24.6802 11.5823 25.829 12.9994 25.829Z" fill="#868E96"/>
</svg>
