<svg width="26" height="25" viewBox="0 0 26 25" fill="none" xmlns="http://www.w3.org/2000/svg">
<path fill-rule="evenodd" clip-rule="evenodd" d="M0 4.18219C0 3.15257 0.410892 2.16511 1.14228 1.43706C1.87368 0.709004 2.86566 0.299988 3.9 0.299988H22.1C23.1343 0.299988 24.1263 0.709004 24.8577 1.43706C25.5891 2.16511 26 3.15257 26 4.18219V17.1229C26 18.1525 25.5891 19.1399 24.8577 19.868C24.1263 20.5961 23.1343 21.0051 22.1 21.0051H12.1329L7.8 24.2402C6.7288 25.04 5.2 24.2791 5.2 22.9462V21.0051H3.9C2.86566 21.0051 1.87368 20.5961 1.14228 19.868C0.410892 19.1399 0 18.1525 0 17.1229V4.18219ZM3.9 2.88812C3.55522 2.88812 3.22456 3.02446 2.98076 3.26715C2.73696 3.50983 2.6 3.83898 2.6 4.18219V17.1229C2.6 17.4661 2.73696 17.7952 2.98076 18.0379C3.22456 18.2806 3.55522 18.4169 3.9 18.4169H5.85C6.36717 18.4169 6.86316 18.6214 7.22886 18.9855C7.59455 19.3495 7.8 19.8432 7.8 20.358V21.0051L10.5729 18.9346C11.023 18.5986 11.5703 18.4169 12.1329 18.4169H22.1C22.4448 18.4169 22.7754 18.2806 23.0192 18.0379C23.263 17.7952 23.4 17.4661 23.4 17.1229V4.18219C23.4 3.83898 23.263 3.50983 23.0192 3.26715C22.7754 3.02446 22.4448 2.88812 22.1 2.88812H3.9Z" fill="#868E96"/>
</svg>
