<svg width="17" height="16" viewBox="0 0 17 16" fill="none" xmlns="http://www.w3.org/2000/svg">
<path d="M16.4688 11.8438L15.625 6.84375C15.5312 6.375 15.125 6.03125 14.625 6.03125H7V4.03125H10C10.25 4.03125 10.5 3.78125 10.5 3.53125V0.5C10.5 0.25 10.25 0 10 0H2C1.71875 0 1.5 0.25 1.5 0.5V3.5C1.5 3.78125 1.71875 4 2 4H5V6H2.34375C1.84375 6 1.4375 6.375 1.34375 6.84375L0.5 11.8438C0.5 11.9688 0.46875 12.0625 0.46875 12.1875V15C0.46875 15.5625 0.9375 16 1.46875 16H15.4688C16.0312 16 16.4688 15.5625 16.4688 15V12.1875C16.5 12.0625 16.4688 11.9688 16.4688 11.8438ZM9.25 7.75C9.25 7.5 9.46875 7.25 9.75 7.25H10.25C10.5 7.25 10.75 7.5 10.75 7.75V8.25C10.75 8.53125 10.5 8.75 10.25 8.75H9.75C9.46875 8.75 9.25 8.53125 9.25 8.25V7.75ZM8.25 9.75H8.75C9 9.75 9.25 10 9.25 10.25V10.75C9.25 11.0312 9 11.25 8.75 11.25H8.25C7.96875 11.25 7.75 11.0312 7.75 10.75V10.25C7.75 10 7.96875 9.75 8.25 9.75ZM7.25 7.25C7.5 7.25 7.75 7.5 7.75 7.75V8.25C7.75 8.53125 7.5 8.75 7.25 8.75H6.75C6.46875 8.75 6.25 8.53125 6.25 8.25V7.75C6.25 7.5 6.46875 7.25 6.75 7.25H7.25ZM3 2.5V1.5H9V2.5H3ZM4.25 8.75H3.75C3.46875 8.75 3.25 8.53125 3.25 8.25V7.75C3.25 7.5 3.46875 7.25 3.75 7.25H4.25C4.5 7.25 4.75 7.5 4.75 7.75V8.25C4.75 8.53125 4.5 8.75 4.25 8.75ZM4.75 10.75V10.25C4.75 10 4.96875 9.75 5.25 9.75H5.75C6 9.75 6.25 10 6.25 10.25V10.75C6.25 11.0312 6 11.25 5.75 11.25H5.25C4.96875 11.25 4.75 11.0312 4.75 10.75ZM11.5 14.25C11.5 14.4062 11.375 14.5 11.25 14.5H5.75C5.59375 14.5 5.5 14.4062 5.5 14.25V13.75C5.5 13.625 5.59375 13.5 5.75 13.5H11.25C11.375 13.5 11.5 13.625 11.5 13.75V14.25ZM12.25 10.75C12.25 11.0312 12 11.25 11.75 11.25H11.25C10.9688 11.25 10.75 11.0312 10.75 10.75V10.25C10.75 10 10.9688 9.75 11.25 9.75H11.75C12 9.75 12.25 10 12.25 10.25V10.75ZM13.75 8.25C13.75 8.53125 13.5 8.75 13.25 8.75H12.75C12.4688 8.75 12.25 8.53125 12.25 8.25V7.75C12.25 7.5 12.4688 7.25 12.75 7.25H13.25C13.5 7.25 13.75 7.5 13.75 7.75V8.25Z" fill="black"/>
</svg>
