<svg width="28" height="24" viewBox="0 0 28 24" fill="none" xmlns="http://www.w3.org/2000/svg">
    <path
        d="M4.66667 5.00004H7V19H4.66667V5.00004ZM8.16667 5.00004H9.33333V19H8.16667V5.00004ZM10.5 5.00004H14V19H10.5V5.00004ZM15.1667 5.00004H16.3333V19H15.1667V5.00004ZM18.6667 5.00004H21V19H18.6667V5.00004ZM22.1667 5.00004H23.3333V19H22.1667V5.00004ZM2.33333 2.66671V7.33337H0V2.66671C0 2.04787 0.245833 1.45438 0.683417 1.01679C1.121 0.579207 1.71449 0.333374 2.33333 0.333374H7V2.66671H2.33333ZM25.6667 0.333374C26.2855 0.333374 26.879 0.579207 27.3166 1.01679C27.7542 1.45438 28 2.04787 28 2.66671V7.33337H25.6667V2.66671H21V0.333374H25.6667ZM2.33333 16.6667V21.3334H7V23.6667H2.33333C1.71449 23.6667 1.121 23.4209 0.683417 22.9833C0.245833 22.5457 0 21.9522 0 21.3334V16.6667H2.33333ZM25.6667 21.3334V16.6667H28V21.3334C28 21.9522 27.7542 22.5457 27.3166 22.9833C26.879 23.4209 26.2855 23.6667 25.6667 23.6667H21V21.3334H25.6667Z"
        fill="#868E96" />
</svg>
