<svg width="30" height="30" viewBox="0 0 30 30" fill="none" xmlns="http://www.w3.org/2000/svg">
<path d="M17.6581 22.5022L17.9474 22.5C19.2546 22.5 19.9403 23.0422 20.7889 24.3257L21.2099 24.9772C21.5389 25.4647 21.7446 25.6682 22.0028 25.7754C22.4667 25.9661 22.8514 25.8718 24.2624 25.1925L24.6942 24.9825C25.5771 24.5497 26.1792 24.3011 26.8585 24.1307C26.9609 24.1051 27.0674 24.0999 27.1718 24.1155C27.2763 24.131 27.3766 24.167 27.4672 24.2213C27.5577 24.2756 27.6367 24.3473 27.6995 24.4321C27.7624 24.5169 27.8079 24.6133 27.8335 24.7157C27.8591 24.8182 27.8643 24.9246 27.8488 25.0291C27.8332 25.1335 27.7973 25.2339 27.7429 25.3244C27.6886 25.4149 27.617 25.4939 27.5322 25.5567C27.4473 25.6196 27.3509 25.6651 27.2485 25.6907C26.8264 25.7957 26.4203 25.9479 25.891 26.1922L24.6492 26.789C22.9692 27.5818 22.3992 27.6772 21.391 27.2604C20.7214 26.985 20.341 26.5854 19.7839 25.7336L19.5749 25.4079C18.9728 24.4597 18.6492 24.1479 18.0749 24.1115L17.9464 24.1072C17.3592 24.1072 17.2435 24.18 15.0106 25.8375C13.1442 27.2229 11.7203 27.884 9.91065 27.884C7.7035 27.884 5.62279 27.479 3.67708 26.6679L6.76493 25.9543C7.77636 26.1686 8.82422 26.2768 9.90958 26.2768C11.2917 26.2768 12.4381 25.7443 14.0528 24.5465L15.2956 23.6293C16.6574 22.6393 16.9606 22.5172 17.6581 22.5022ZM24.4049 3.45217C25.2657 4.3133 25.7492 5.48103 25.7492 6.69859C25.7492 7.91616 25.2657 9.08389 24.4049 9.94502L23.2949 11.055C24.5292 12.5572 24.4842 14.1482 23.3378 15.299L20.1224 18.5154C19.9715 18.666 19.767 18.7505 19.5538 18.7503C19.3406 18.7501 19.1363 18.6652 18.9856 18.5143C18.835 18.3634 18.7505 18.1589 18.7507 17.9457C18.7509 17.7325 18.8358 17.5281 18.9867 17.3775L22.1989 14.1643C22.7196 13.6436 22.7796 12.9965 22.156 12.195L10.8064 23.5457C10.4868 23.8651 10.084 24.0882 9.64386 24.1897L3.12958 25.694C2.99667 25.7248 2.85812 25.7212 2.72696 25.6837C2.5958 25.6461 2.47636 25.5758 2.37989 25.4794C2.28342 25.3829 2.2131 25.2634 2.17556 25.1323C2.13802 25.0011 2.13448 24.8626 2.16529 24.7297L3.66851 18.2154C3.76981 17.7748 3.99294 17.3716 4.31243 17.0518L17.911 3.45217C18.3373 3.02583 18.8435 2.68764 19.4005 2.45691C19.9575 2.22618 20.5545 2.10742 21.1574 2.10742C21.7604 2.10742 22.3574 2.22618 22.9144 2.45691C23.4714 2.68764 23.9775 3.02583 24.4039 3.45217H24.4049ZM19.0478 4.58788L5.44815 18.1897C5.34178 18.2963 5.26753 18.4307 5.23386 18.5775L4.01886 23.8382L9.28172 22.6243C9.42815 22.5905 9.56215 22.5162 9.6685 22.41L23.2681 8.80824C23.8279 8.24844 24.1424 7.48919 24.1424 6.69752C24.1424 5.90585 23.8279 5.14661 23.2681 4.58681C22.7084 4.02701 21.9491 3.71252 21.1574 3.71252C20.3658 3.71252 19.6065 4.02701 19.0467 4.58681L19.0478 4.58788Z" fill="black"/>
</svg>
