<svg width="191" height="84" viewBox="0 0 191 84" fill="none" xmlns="http://www.w3.org/2000/svg">
<g clip-path="url(#clip0_90_39707)">
<path d="M64.1018 13.034L66.7536 12.166L69.4763 20.566L66.8246 21.434L64.1018 13.034ZM60.0156 22.834L62.6673 21.966L65.39 30.366L62.7383 31.234L60.0156 22.834Z" fill="#40C057"/>
<path d="M13.0033 26.9178C12.8578 27.9756 12.935 29.0522 13.2299 30.0782C13.5249 31.1039 14.031 32.0564 14.7153 32.8734L16.7285 35.4088V58.8H19.5168V37.6166L21.5314 38.9648C21.7606 39.1184 22.0298 39.2003 22.3052 39.2003C22.5806 39.2003 22.8499 39.1184 23.0789 38.9648L26.4876 36.68L29.8964 38.962C30.1256 39.1156 30.3948 39.1975 30.6701 39.1975C30.9456 39.1975 31.2148 39.1156 31.4439 38.962L34.8526 36.68L38.2613 38.962C38.4905 39.1156 38.7597 39.1975 39.0351 39.1975C39.3106 39.1975 39.5798 39.1156 39.8088 38.962L43.2176 36.68L46.6263 38.962C46.8555 39.1156 47.1247 39.1975 47.4 39.1975C47.6755 39.1975 47.9447 39.1156 48.1738 38.962L51.5825 36.68L54.3708 38.5462V81.2H23.6993V84H62.7358C64.5839 83.9978 66.3557 83.2595 67.6625 81.9473C68.9692 80.6351 69.7044 78.8558 69.7066 77V35C69.7029 34.6921 69.5975 34.3942 69.4069 34.153L77.4637 12.614C77.998 11.1886 78.1803 9.6545 77.9953 8.14288C77.8103 6.63125 77.2634 5.18713 76.4014 3.93404C75.5831 2.71887 74.4797 1.72445 73.1885 1.03842C71.8973 0.352386 70.4578 -0.00421621 68.997 3.76151e-05C67.1503 0.0173286 65.3521 0.596785 63.8403 1.66187C62.3283 2.72695 61.1737 4.22754 60.5289 5.96544L58.3428 11.809L55.765 9.22044V4.20004C55.765 3.82873 55.6182 3.47264 55.3567 3.21009C55.0953 2.94753 54.7406 2.80004 54.3708 2.80004H39.0351C38.6654 2.80004 38.3108 2.94753 38.0493 3.21009C37.7879 3.47264 37.6409 3.82873 37.6409 4.20004V6.60244C36.8778 5.90775 35.894 5.50728 34.8646 5.47215C33.8351 5.43704 32.8266 5.76957 32.0183 6.41064V4.20004C32.0183 3.0995 31.5829 2.04403 30.808 1.26583C30.033 0.487627 28.9819 0.0504377 27.886 0.0504377C26.79 0.0504377 25.739 0.487627 24.9641 1.26583C24.1891 2.04403 23.7537 3.0995 23.7537 4.20004V6.41204C22.9908 5.77671 22.0304 5.42996 21.0393 5.43204C20.4696 5.43067 19.9055 5.54435 19.3805 5.76635C18.8556 5.98833 18.3803 6.3141 17.9833 6.72424C17.1876 7.5476 16.7405 8.64858 16.736 9.79594C16.7317 10.9433 17.1702 12.0477 17.9596 12.8772L19.2575 14.2226C18.785 14.44 18.3561 14.7423 17.9916 15.1144L17.9833 15.12L17.9693 15.134C17.6446 15.4692 17.3762 15.8549 17.1746 16.2764L15.5853 13.3294L13.133 14.6622L16.7383 21.3444C16.5766 21.4368 16.4148 21.5264 16.2615 21.6314C16.2043 21.6706 16.1541 21.7154 16.0984 21.7546L10.703 16.7622L8.8125 18.8216L14.1716 23.7832C13.5562 24.7285 13.1572 25.7991 13.0033 26.9178ZM42.4438 33.8352L39.0351 36.12L35.6264 33.838C35.3973 33.6846 35.1281 33.6027 34.8526 33.6027C34.5773 33.6027 34.308 33.6846 34.0788 33.838L30.7022 36.099C30.6938 35.959 30.6701 35.8372 30.6701 35.7028C30.6658 34.2129 31.1889 32.7701 32.1458 31.6316C33.1029 30.4931 34.4317 29.7332 35.895 29.4874C37.3583 29.2417 38.8611 29.526 40.1349 30.2898C41.4088 31.0537 42.3709 32.2472 42.8495 33.6574C42.7058 33.6948 42.5689 33.7548 42.4438 33.8352ZM46.0059 35.1848L45.9794 35.1666C45.8967 33.7163 45.4691 32.3072 44.7322 31.0572C43.9954 29.8071 42.9709 28.7526 41.7445 27.9822C40.5182 27.2118 39.1258 26.7477 37.6841 26.629C36.2424 26.5103 34.7934 26.7404 33.4584 27.3V18.2H46.0059V35.1848ZM66.9183 77C66.9183 78.114 66.4777 79.1822 65.6932 79.9698C64.9089 80.7576 63.8451 81.2 62.7358 81.2H57.1592V38.549L59.9475 36.68L63.3562 38.962C63.5854 39.1156 63.8546 39.1975 64.13 39.1975C64.4055 39.1975 64.6747 39.1156 64.9037 38.962L66.9183 37.6166V77ZM63.1387 6.94964C63.5828 5.74419 64.3804 4.70228 65.4263 3.96143C66.4722 3.22059 67.7171 2.81564 68.997 2.80004C70.0061 2.79814 71.0001 3.04538 71.8915 3.51996C72.783 3.99455 73.5447 4.68195 74.1094 5.52164C74.7157 6.4036 75.1002 7.41999 75.2299 8.48378C75.3595 9.54757 75.2306 10.6271 74.8539 11.6298L66.2212 34.72L64.13 36.12L60.7212 33.838C60.4922 33.6846 60.223 33.6027 59.9475 33.6027C59.6721 33.6027 59.4029 33.6846 59.1737 33.838L55.765 36.12L52.9363 34.2258L63.1387 6.94964ZM57.2665 14.6874L49.8677 34.4652L48.7942 35.1848V17.3796L54.3708 11.7796L57.2665 14.6874ZM40.4292 5.60004H52.9767V8.40004H40.4292V5.60004ZM39.6123 11.2H51.0053L46.8229 15.4H35.4298L39.6123 11.2ZM19.9727 8.68844C20.1112 8.54493 20.2769 8.43081 20.4601 8.3529C20.6433 8.27498 20.8403 8.23483 21.0393 8.23484C21.2382 8.23498 21.4351 8.2752 21.6183 8.35311C21.8016 8.43104 21.9674 8.54505 22.1058 8.68844L24.1524 10.7884C24.3468 10.9875 24.5959 11.1237 24.8679 11.1797C25.1398 11.2357 25.4222 11.2089 25.6789 11.1027C25.9356 10.9966 26.1549 10.8159 26.3086 10.5838C26.4624 10.3517 26.5437 10.0788 26.542 9.80004V4.20004C26.5338 4.01764 26.5624 3.83544 26.6262 3.66446C26.6901 3.49348 26.7877 3.33726 26.9133 3.20524C27.0389 3.07322 27.1899 2.96814 27.357 2.89635C27.5242 2.82456 27.7042 2.78755 27.886 2.78755C28.0678 2.78755 28.2478 2.82456 28.4149 2.89635C28.5822 2.96814 28.7331 3.07322 28.8587 3.20524C28.9843 3.33726 29.082 3.49348 29.1459 3.66446C29.2096 3.83544 29.2383 4.01764 29.23 4.20004V9.80004C29.2304 10.0778 29.3129 10.3492 29.4672 10.5797C29.6216 10.8101 29.8407 10.9893 30.0967 11.0944C30.3528 11.1994 30.6342 11.2257 30.905 11.1697C31.1761 11.1137 31.4242 10.9781 31.6182 10.78L33.6717 8.68004C33.9542 8.40063 34.3348 8.24401 34.7313 8.24401C35.1278 8.24401 35.5084 8.40063 35.7909 8.68004C36.0821 8.97949 36.2452 9.38147 36.2452 9.80004C36.2452 10.2186 36.0821 10.6206 35.7909 10.92L31.6837 15.12L31.7255 15.162L31.0786 15.8116C30.9664 15.9278 30.8753 16.0629 30.8095 16.2106C30.79 16.254 30.7789 16.2974 30.7635 16.3422C30.7218 16.4615 30.6965 16.5858 30.6882 16.7118C30.6882 16.7426 30.6715 16.7678 30.6715 16.7986V29.148C30.3542 29.4525 30.0598 29.7801 29.7904 30.128L27.1568 24.5C26.6764 23.5399 25.9977 22.6937 25.1658 22.0178C24.3341 21.3417 23.3683 20.8516 22.333 20.58C21.8454 20.4534 21.346 20.3774 20.8427 20.3532L20.4858 19.9332C20.2069 19.6126 19.9964 19.362 19.963 19.327C19.7852 19.1404 19.6544 18.9139 19.5817 18.6662C19.509 18.4184 19.4963 18.1569 19.5447 17.9032C19.5963 17.611 19.7303 17.3398 19.9309 17.122L19.956 17.0982L19.9909 17.0604C20.2358 16.8195 20.5559 16.6705 20.8973 16.6383C21.2388 16.6062 21.5808 16.6929 21.866 16.884C22.1517 17.0758 22.4977 17.1549 22.8377 17.1062C23.1779 17.0575 23.4881 16.8844 23.7089 16.6201C23.9296 16.3559 24.0456 16.0191 24.0343 15.6743C24.023 15.3294 23.8854 15.001 23.6477 14.7518L19.963 10.9326C19.6751 10.63 19.5153 10.2271 19.5171 9.80855C19.5189 9.39004 19.6822 8.98852 19.9727 8.68844ZM15.7665 27.3C15.8565 26.6291 16.0861 25.9847 16.4406 25.4089C16.7953 24.8331 17.2667 24.3387 17.8243 23.9582C18.3772 23.5824 19.0034 23.3292 19.6613 23.2154C20.3192 23.1015 20.9937 23.1295 21.64 23.2978C22.2862 23.466 22.8895 23.7705 23.4093 24.1909C23.9294 24.6113 24.3543 25.1381 24.6557 25.7362L28.2094 33.3368C28.1215 33.6644 28.0522 33.9968 28.0017 34.3322L27.267 33.8394C27.0379 33.686 26.7687 33.6041 26.4932 33.6041C26.2179 33.6041 25.9487 33.686 25.7195 33.8394L22.3052 36.12L19.2129 34.048L18.9146 33.6714L22.5087 30.8812L20.8023 28.6664L17.1774 31.4818L16.8679 31.094C16.4293 30.5747 16.1046 29.9685 15.9149 29.3149C15.725 28.6611 15.6745 27.9747 15.7665 27.3Z" fill="#40C057"/>
<path d="M82.0178 34.9999V6.10395H101.801V12.4459H90.5919V18.3679H100.253V24.7519H90.5919V34.9999H82.0178ZM114.628 35.3359C112.648 35.3359 111.003 35.2239 109.693 34.9999C108.41 34.8039 107.392 34.4539 106.64 33.9499C105.887 33.4459 105.343 32.7739 105.008 31.9339C104.674 31.0659 104.451 30.0159 104.339 28.7839C104.256 27.5239 104.214 26.0259 104.214 24.2899C104.214 22.5539 104.256 21.0699 104.339 19.8379C104.451 18.5779 104.674 17.5279 105.008 16.6879C105.343 15.8199 105.887 15.1339 106.64 14.6299C107.392 14.1259 108.41 13.7759 109.693 13.5799C111.003 13.3559 112.648 13.2439 114.628 13.2439C116.58 13.2439 118.197 13.3559 119.48 13.5799C120.79 13.7759 121.822 14.1259 122.575 14.6299C123.328 15.1339 123.871 15.8199 124.206 16.6879C124.568 17.5279 124.791 18.5779 124.875 19.8379C124.987 21.0699 125.042 22.5539 125.042 24.2899C125.042 26.0259 124.987 27.5239 124.875 28.7839C124.791 30.0159 124.568 31.0659 124.206 31.9339C123.871 32.7739 123.328 33.4459 122.575 33.9499C121.822 34.4539 120.79 34.8039 119.48 34.9999C118.197 35.2239 116.58 35.3359 114.628 35.3359ZM114.628 29.5819C115.241 29.5819 115.716 29.5399 116.05 29.4559C116.413 29.372 116.664 29.1619 116.803 28.8259C116.97 28.4619 117.068 27.9159 117.096 27.1879C117.124 26.4599 117.138 25.4939 117.138 24.2899C117.138 23.0299 117.124 22.0499 117.096 21.3499C117.068 20.6499 116.97 20.1319 116.803 19.7959C116.664 19.4319 116.413 19.2079 116.05 19.1239C115.716 19.0399 115.241 18.9979 114.628 18.9979C113.987 18.9979 113.485 19.0399 113.122 19.1239C112.788 19.2079 112.551 19.4319 112.411 19.7959C112.272 20.1319 112.188 20.6499 112.16 21.3499C112.133 22.0499 112.119 23.0299 112.119 24.2899C112.119 25.4939 112.133 26.4599 112.16 27.1879C112.188 27.9159 112.272 28.4619 112.411 28.8259C112.551 29.1619 112.788 29.372 113.122 29.4559C113.485 29.5399 113.987 29.5819 114.628 29.5819ZM138.563 35.3359C136.583 35.3359 134.938 35.2239 133.628 34.9999C132.345 34.8039 131.327 34.4539 130.574 33.9499C129.822 33.4459 129.278 32.7739 128.943 31.9339C128.609 31.0659 128.386 30.0159 128.274 28.7839C128.19 27.5239 128.149 26.0259 128.149 24.2899C128.149 22.5539 128.19 21.0699 128.274 19.8379C128.386 18.5779 128.609 17.5279 128.943 16.6879C129.278 15.8199 129.822 15.1339 130.574 14.6299C131.327 14.1259 132.345 13.7759 133.628 13.5799C134.938 13.3559 136.583 13.2439 138.563 13.2439C140.515 13.2439 142.133 13.3559 143.415 13.5799C144.726 13.7759 145.757 14.1259 146.51 14.6299C147.263 15.1339 147.807 15.8199 148.141 16.6879C148.504 17.5279 148.727 18.5779 148.811 19.8379C148.922 21.0699 148.978 22.5539 148.978 24.2899C148.978 26.0259 148.922 27.5239 148.811 28.7839C148.727 30.0159 148.504 31.0659 148.141 31.9339C147.807 32.7739 147.263 33.4459 146.51 33.9499C145.757 34.4539 144.726 34.8039 143.415 34.9999C142.133 35.2239 140.515 35.3359 138.563 35.3359ZM138.563 29.5819C139.176 29.5819 139.651 29.5399 139.986 29.4559C140.348 29.372 140.599 29.1619 140.738 28.8259C140.906 28.4619 141.003 27.9159 141.031 27.1879C141.059 26.4599 141.073 25.4939 141.073 24.2899C141.073 23.0299 141.059 22.0499 141.031 21.3499C141.003 20.6499 140.906 20.1319 140.738 19.7959C140.599 19.4319 140.348 19.2079 139.986 19.1239C139.651 19.0399 139.176 18.9979 138.563 18.9979C137.922 18.9979 137.42 19.0399 137.057 19.1239C136.723 19.2079 136.486 19.4319 136.346 19.7959C136.207 20.1319 136.123 20.6499 136.095 21.3499C136.067 22.0499 136.054 23.0299 136.054 24.2899C136.054 25.4939 136.067 26.4599 136.095 27.1879C136.123 27.9159 136.207 28.4619 136.346 28.8259C136.486 29.1619 136.723 29.372 137.057 29.4559C137.42 29.5399 137.922 29.5819 138.563 29.5819ZM158.776 35.3359C157.605 35.3359 156.587 35.1679 155.723 34.8319C154.886 34.4959 154.189 33.9219 153.632 33.1099C153.102 32.2979 152.712 31.1779 152.461 29.7499C152.21 28.3219 152.084 26.5299 152.084 24.3739C152.084 22.1899 152.21 20.3839 152.461 18.9559C152.712 17.5279 153.116 16.3939 153.673 15.5539C154.231 14.7139 154.928 14.1259 155.765 13.7899C156.629 13.4539 157.647 13.2859 158.818 13.2859C159.599 13.2859 160.324 13.3559 160.993 13.4959C161.69 13.6079 162.331 13.8459 162.917 14.2099C163.502 14.5459 164.032 15.0779 164.506 15.8059H164.883V3.79395H172.787V34.9999H165.175L165.008 32.5219H164.59C164.172 33.3059 163.656 33.9079 163.042 34.3279C162.429 34.7199 161.76 34.9859 161.035 35.1259C160.31 35.2659 159.557 35.3359 158.776 35.3359ZM162.457 29.0779C163.154 29.0779 163.656 28.9939 163.962 28.8259C164.297 28.6579 164.52 28.3219 164.632 27.8179C164.743 27.3699 164.813 26.8659 164.841 26.306C164.869 25.7179 164.883 25.0459 164.883 24.2899C164.883 23.5339 164.869 22.8899 164.841 22.3579C164.841 21.7979 164.785 21.3219 164.673 20.9299C164.562 20.3419 164.339 19.9639 164.004 19.7959C163.67 19.6279 163.154 19.5439 162.457 19.5439C161.843 19.5439 161.369 19.5859 161.035 19.6699C160.728 19.7259 160.491 19.9079 160.324 20.2159C160.184 20.5239 160.087 20.9999 160.031 21.6439C160.003 22.2879 159.989 23.1699 159.989 24.2899C159.989 25.4099 160.003 26.3059 160.031 26.9779C160.087 27.6219 160.184 28.0979 160.324 28.4059C160.491 28.6859 160.728 28.8679 161.035 28.9519C161.369 29.0359 161.843 29.0779 162.457 29.0779ZM92.8923 77.336C91.749 77.336 90.5082 77.294 89.1698 77.21C87.8315 77.154 86.5349 77.084 85.2801 77C84.0254 76.888 82.9101 76.7619 81.9342 76.6219V70.532C82.9658 70.616 83.9836 70.7 84.9874 70.784C86.019 70.84 86.981 70.896 87.8733 70.952C88.7934 70.9799 89.5742 70.9939 90.2155 70.9939C91.4144 70.9939 92.3207 70.966 92.9341 70.91C93.5754 70.826 94.0215 70.686 94.2725 70.49C94.4677 70.35 94.5931 70.196 94.6489 70.028C94.7325 69.832 94.7883 69.608 94.8162 69.3559C94.8441 69.104 94.858 68.824 94.858 68.5159C94.858 68.0399 94.8162 67.662 94.7325 67.382C94.6489 67.102 94.4955 66.878 94.2725 66.71C94.0494 66.542 93.7009 66.416 93.2269 66.332C92.7807 66.22 92.1673 66.1219 91.3866 66.0379L86.033 65.3659C85.0292 65.2259 84.2066 64.932 83.5653 64.484C82.9519 64.036 82.45 63.4479 82.0596 62.7199C81.6971 61.964 81.4462 61.068 81.3068 60.032C81.1674 58.968 81.0977 57.806 81.0977 56.5459C81.0977 54.6419 81.3765 53.1159 81.9342 51.9679C82.5197 50.792 83.3144 49.91 84.3182 49.3219C85.3498 48.7059 86.5349 48.2999 87.8733 48.104C89.2396 47.88 90.7034 47.7679 92.2649 47.7679C93.436 47.7679 94.621 47.8099 95.82 47.8939C97.0469 47.9779 98.204 48.0759 99.2915 48.1879C100.379 48.2999 101.271 48.44 101.968 48.608V54.6139C101.271 54.5299 100.449 54.446 99.5006 54.362C98.5526 54.278 97.5766 54.222 96.5728 54.1939C95.569 54.1379 94.621 54.11 93.7288 54.11C92.8644 54.11 92.1673 54.1379 91.6375 54.1939C91.1356 54.25 90.7452 54.3619 90.4664 54.53C90.1597 54.698 89.9506 54.9359 89.839 55.2439C89.7554 55.5239 89.7136 55.8739 89.7136 56.2939C89.7136 56.882 89.7554 57.3299 89.839 57.6379C89.9227 57.9459 90.1458 58.1559 90.5082 58.2679C90.8707 58.3799 91.4423 58.492 92.2231 58.604L97.242 59.1919C97.967 59.2759 98.6501 59.416 99.2915 59.612C99.9607 59.808 100.56 60.116 101.09 60.536C101.648 60.956 102.136 61.5579 102.554 62.3419C102.749 62.7059 102.902 63.154 103.014 63.686C103.125 64.19 103.223 64.792 103.307 65.492C103.39 66.1919 103.432 66.99 103.432 67.886C103.432 69.594 103.265 71.0219 102.93 72.17C102.596 73.3179 102.108 74.242 101.466 74.9419C100.825 75.614 100.058 76.132 99.166 76.4959C98.3016 76.8319 97.3396 77.0559 96.2801 77.168C95.2205 77.28 94.0912 77.336 92.8923 77.336ZM109.143 77V61.334H105.42V55.58H109.143V49.3639H117.173V55.58H121.607V61.334H117.173V77H109.143ZM134.111 77.336C132.131 77.336 130.486 77.224 129.176 77C127.893 76.804 126.875 76.4539 126.122 75.95C125.37 75.446 124.826 74.774 124.491 73.934C124.157 73.066 123.934 72.016 123.822 70.784C123.738 69.524 123.697 68.0259 123.697 66.2899C123.697 64.5539 123.738 63.0699 123.822 61.8379C123.934 60.5779 124.157 59.5279 124.491 58.6879C124.826 57.8199 125.37 57.134 126.122 56.63C126.875 56.1259 127.893 55.776 129.176 55.58C130.486 55.3559 132.131 55.2439 134.111 55.2439C136.063 55.2439 137.68 55.3559 138.963 55.58C140.273 55.776 141.304 56.1259 142.057 56.63C142.81 57.134 143.354 57.8199 143.689 58.6879C144.051 59.5279 144.274 60.5779 144.358 61.8379C144.469 63.0699 144.525 64.5539 144.525 66.2899C144.525 68.0259 144.469 69.524 144.358 70.784C144.274 72.016 144.051 73.066 143.689 73.934C143.354 74.774 142.81 75.446 142.057 75.95C141.304 76.4539 140.273 76.804 138.963 77C137.68 77.224 136.063 77.336 134.111 77.336ZM134.111 71.582C134.724 71.582 135.198 71.54 135.533 71.456C135.895 71.372 136.146 71.1619 136.286 70.826C136.453 70.462 136.551 69.9159 136.579 69.188C136.606 68.4599 136.62 67.4939 136.62 66.2899C136.62 65.0299 136.606 64.0499 136.579 63.3499C136.551 62.65 136.453 62.132 136.286 61.7959C136.146 61.4319 135.895 61.208 135.533 61.124C135.198 61.04 134.724 60.998 134.111 60.998C133.47 60.998 132.968 61.04 132.605 61.124C132.271 61.208 132.034 61.4319 131.894 61.7959C131.755 62.132 131.671 62.65 131.643 63.3499C131.615 64.0499 131.601 65.0299 131.601 66.2899C131.601 67.4939 131.615 68.4599 131.643 69.188C131.671 69.9159 131.755 70.462 131.894 70.826C132.034 71.1619 132.271 71.372 132.605 71.456C132.968 71.54 133.47 71.582 134.111 71.582ZM157.167 77.336C155.327 77.336 153.807 77.168 152.608 76.832C151.437 76.496 150.503 76.02 149.806 75.404C149.137 74.7599 148.649 73.99 148.342 73.0939C148.035 72.198 147.84 71.1759 147.757 70.028C147.673 68.88 147.631 67.6339 147.631 66.2899C147.631 64.9739 147.673 63.756 147.757 62.636C147.84 61.488 148.035 60.466 148.342 59.57C148.649 58.646 149.137 57.8619 149.806 57.2179C150.503 56.5739 151.437 56.084 152.608 55.748C153.807 55.4119 155.327 55.2439 157.167 55.2439C158.338 55.2439 159.482 55.3139 160.597 55.454C161.74 55.566 162.814 55.734 163.817 55.958V61.292C163.288 61.208 162.591 61.138 161.726 61.082C160.89 61.026 160.095 60.998 159.342 60.998C158.478 60.998 157.795 61.068 157.293 61.208C156.819 61.32 156.456 61.5579 156.205 61.922C155.982 62.2859 155.829 62.8179 155.745 63.5179C155.689 64.2179 155.662 65.1419 155.662 66.2899C155.662 67.438 155.689 68.362 155.745 69.062C155.829 69.762 155.982 70.294 156.205 70.658C156.456 71.0219 156.819 71.2739 157.293 71.4139C157.795 71.5259 158.492 71.582 159.384 71.582C160.025 71.582 160.764 71.5539 161.601 71.4979C162.465 71.4419 163.26 71.3719 163.985 71.2879V76.58C162.953 76.832 161.838 77.014 160.639 77.126C159.468 77.266 158.31 77.336 157.167 77.336ZM167.702 77V45.7939H175.606V63.5179H176.401L181.42 55.58H189.743L182.968 65.7439L189.869 77H181.169L176.401 69.2299H175.606V77H167.702Z" fill="#40C057"/>
<path d="M2.97653 80.5084C3.49582 81.5602 4.29825 82.4449 5.29281 83.0621C6.28737 83.6793 7.43425 84.0042 8.60336 84C9.57975 83.9983 10.5426 83.7703 11.4168 83.3336L12.5474 82.7652L13.6795 83.3336C14.5532 83.7704 15.5156 83.9985 16.4915 84C17.6607 84.0042 18.8075 83.6793 19.8021 83.0621C20.7967 82.4449 21.599 81.5602 22.1184 80.5084L22.6049 79.5284C24.2375 76.2392 25.0897 72.6152 25.0949 68.9402C25.0927 66.9942 24.3218 65.1284 22.9515 63.7524C21.5812 62.3763 19.7232 61.6022 17.7853 61.6C16.4247 61.6038 15.0928 61.9919 13.9416 62.72V61.6C13.9416 60.1147 13.3541 58.6904 12.3082 57.6402C11.2624 56.59 9.84399 56 8.36496 56V58.8C9.10447 58.8 9.81369 59.095 10.3366 59.6201C10.8595 60.1453 11.1533 60.8574 11.1533 61.6V62.72C10.0021 61.9919 8.67009 61.6038 7.30958 61.6C5.37164 61.6022 3.5137 62.3763 2.14337 63.7524C0.77304 65.1284 0.00221395 66.9942 0 68.9402C0.0047948 72.6162 0.857037 76.2412 2.48997 79.5312L2.97653 80.5084ZM7.30958 64.4C7.90355 64.3983 8.49194 64.5151 9.04069 64.7434C9.58943 64.9716 10.0876 65.3071 10.5064 65.73L11.5618 66.7898C11.8232 67.0523 12.1778 67.1997 12.5474 67.1997C12.9171 67.1997 13.2717 67.0523 13.5331 66.7898L14.5885 65.73C15.2207 65.0951 16.0264 64.6628 16.9034 64.4876C17.7803 64.3125 18.6894 64.4024 19.5155 64.7459C20.3415 65.0896 21.0476 65.6715 21.5445 66.418C22.0413 67.1646 22.3064 68.0422 22.3066 68.9402C22.3029 72.1819 21.5514 75.3787 20.1108 78.2796L19.6242 79.2596C19.3344 79.8444 18.8874 80.3361 18.3338 80.6789C17.7801 81.0218 17.142 81.2024 16.4915 81.2C15.9481 81.1992 15.4123 81.0722 14.9259 80.829L13.1706 79.947C12.9771 79.8498 12.7638 79.7993 12.5474 79.7993C12.3311 79.7993 12.1178 79.8498 11.9243 79.947L10.1704 80.829C9.68341 81.072 9.14717 81.1989 8.60336 81.2C7.95246 81.202 7.31403 81.0208 6.76037 80.6771C6.20671 80.3334 5.75995 79.8409 5.47069 79.2554L4.98412 78.2754C3.54419 75.3757 2.79262 72.1805 2.78832 68.9402C2.7898 67.7365 3.26662 66.5826 4.1142 65.7314C4.96178 64.8803 6.11093 64.4015 7.30958 64.4Z" fill="#40C057"/>
</g>
<defs>
<clipPath id="clip0_90_39707">
<rect width="191" height="84" fill="white"/>
</clipPath>
</defs>
</svg>
