<svg width="26" height="26" viewBox="0 0 26 26" fill="none" xmlns="http://www.w3.org/2000/svg">
<path d="M23.6596 23.4348V12.1305M2.3428 12.1305V23.4348M0.566406 24.3044H25.436M14.7776 24.3044V16.0435C14.7776 15.6976 14.918 15.3658 15.1678 15.1212C15.4177 14.8766 15.7565 14.7392 16.1099 14.7392H19.6627C20.016 14.7392 20.3549 14.8766 20.6048 15.1212C20.8546 15.3658 20.995 15.6976 20.995 16.0435V24.3044M20.0218 1.69568H5.98053C4.77092 1.69568 3.67843 2.34785 3.2088 3.35111L0.80511 8.48916C-0.00426151 10.218 1.33969 12.1767 3.42474 12.2392H3.53577C5.27886 12.2392 6.69165 10.8707 6.69165 9.40057C6.69165 10.868 8.10499 12.2392 9.84808 12.2392C11.5912 12.2392 13.0012 10.9685 13.0012 9.40057C13.0012 10.868 14.414 12.2392 16.1571 12.2392C17.9002 12.2392 19.3135 10.9685 19.3135 9.40057C19.3135 10.9685 20.7263 12.2392 22.4694 12.2392H22.5776C24.6627 12.1756 26.0066 10.2169 25.1973 8.48916L22.7936 3.35111C22.3239 2.34785 21.2315 1.69568 20.0218 1.69568ZM6.3397 14.7392H10.7807C11.134 14.7392 11.4729 14.8766 11.7228 15.1212C11.9726 15.3658 12.113 15.6976 12.113 16.0435V20.8261H5.0074V16.0435C5.0074 15.6976 5.14777 15.3658 5.39762 15.1212C5.64748 14.8766 5.98635 14.7392 6.3397 14.7392Z" stroke="#868E96" stroke-width="1.875" stroke-linecap="round" stroke-linejoin="round"/>
</svg>
