<svg width="1200" height="1200" viewBox="0 0 1200 1200" fill="none" xmlns="http://www.w3.org/2000/svg">
<mask id="mask0_12194_17630" style="mask-type:luminance" maskUnits="userSpaceOnUse" x="685" y="576" width="131" height="195">
<path d="M815.601 770.382H744.091C701.131 770.382 685.051 756.802 685.051 719.932V576.352H729.401V706.902C729.401 727.132 737.161 734.892 757.391 734.892H815.601V770.382V770.382Z" fill="white"/>
</mask>
<g mask="url(#mask0_12194_17630)">
<path d="M686.671 576.352L685.051 662.862V576.352H686.671Z" fill="white"/>
</g>
<mask id="mask1_12194_17630" style="mask-type:luminance" maskUnits="userSpaceOnUse" x="685" y="576" width="131" height="195">
<path d="M815.601 770.382H744.091C701.131 770.382 685.051 756.802 685.051 719.932V576.352H729.401V706.902C729.401 727.132 737.161 734.892 757.391 734.892H815.601V770.382V770.382Z" fill="white"/>
</mask>
<g mask="url(#mask1_12194_17630)">
<path d="M690.721 576.352L687.081 770.382H685.051V662.862L686.671 576.352H690.721Z" fill="white"/>
</g>
<mask id="mask2_12194_17630" style="mask-type:luminance" maskUnits="userSpaceOnUse" x="685" y="576" width="131" height="195">
<path d="M815.601 770.382H744.091C701.131 770.382 685.051 756.802 685.051 719.932V576.352H729.401V706.902C729.401 727.132 737.161 734.892 757.391 734.892H815.601V770.382V770.382Z" fill="white"/>
</mask>
<g mask="url(#mask2_12194_17630)">
<path d="M694.772 576.352L691.132 770.382H687.082L690.722 576.352H694.772Z" fill="white"/>
</g>
<mask id="mask3_12194_17630" style="mask-type:luminance" maskUnits="userSpaceOnUse" x="685" y="576" width="131" height="195">
<path d="M815.601 770.382H744.091C701.131 770.382 685.051 756.802 685.051 719.932V576.352H729.401V706.902C729.401 727.132 737.161 734.892 757.391 734.892H815.601V770.382V770.382Z" fill="white"/>
</mask>
<g mask="url(#mask3_12194_17630)">
<path d="M698.819 576.352L695.179 770.382H691.129L694.769 576.352H698.819Z" fill="white"/>
</g>
<mask id="mask4_12194_17630" style="mask-type:luminance" maskUnits="userSpaceOnUse" x="685" y="576" width="131" height="195">
<path d="M815.601 770.382H744.091C701.131 770.382 685.051 756.802 685.051 719.932V576.352H729.401V706.902C729.401 727.132 737.161 734.892 757.391 734.892H815.601V770.382V770.382Z" fill="white"/>
</mask>
<g mask="url(#mask4_12194_17630)">
<path d="M702.87 576.352L699.23 770.382H695.18L698.82 576.352H702.87Z" fill="white"/>
</g>
<mask id="mask5_12194_17630" style="mask-type:luminance" maskUnits="userSpaceOnUse" x="685" y="576" width="131" height="195">
<path d="M815.601 770.382H744.091C701.131 770.382 685.051 756.802 685.051 719.932V576.352H729.401V706.902C729.401 727.132 737.161 734.892 757.391 734.892H815.601V770.382V770.382Z" fill="white"/>
</mask>
<g mask="url(#mask5_12194_17630)">
<path d="M706.92 576.352L703.281 770.382H699.23L702.87 576.352H706.92Z" fill="white"/>
</g>
<mask id="mask6_12194_17630" style="mask-type:luminance" maskUnits="userSpaceOnUse" x="685" y="576" width="131" height="195">
<path d="M815.601 770.382H744.091C701.131 770.382 685.051 756.802 685.051 719.932V576.352H729.401V706.902C729.401 727.132 737.161 734.892 757.391 734.892H815.601V770.382V770.382Z" fill="white"/>
</mask>
<g mask="url(#mask6_12194_17630)">
<path d="M710.981 576.352L707.331 770.382H703.281L706.921 576.352H710.981Z" fill="white"/>
</g>
<mask id="mask7_12194_17630" style="mask-type:luminance" maskUnits="userSpaceOnUse" x="685" y="576" width="131" height="195">
<path d="M815.601 770.382H744.091C701.131 770.382 685.051 756.802 685.051 719.932V576.352H729.401V706.902C729.401 727.132 737.161 734.892 757.391 734.892H815.601V770.382V770.382Z" fill="white"/>
</mask>
<g mask="url(#mask7_12194_17630)">
<path d="M715.032 576.352L711.392 770.382H707.332L710.982 576.352H715.032Z" fill="white"/>
</g>
<mask id="mask8_12194_17630" style="mask-type:luminance" maskUnits="userSpaceOnUse" x="685" y="576" width="131" height="195">
<path d="M815.601 770.382H744.091C701.131 770.382 685.051 756.802 685.051 719.932V576.352H729.401V706.902C729.401 727.132 737.161 734.892 757.391 734.892H815.601V770.382V770.382Z" fill="white"/>
</mask>
<g mask="url(#mask8_12194_17630)">
<path d="M719.081 576.352L715.441 770.382H711.391L715.031 576.352H719.081Z" fill="white"/>
</g>
<mask id="mask9_12194_17630" style="mask-type:luminance" maskUnits="userSpaceOnUse" x="685" y="576" width="131" height="195">
<path d="M815.601 770.382H744.091C701.131 770.382 685.051 756.802 685.051 719.932V576.352H729.401V706.902C729.401 727.132 737.161 734.892 757.391 734.892H815.601V770.382V770.382Z" fill="white"/>
</mask>
<g mask="url(#mask9_12194_17630)">
<path d="M723.131 576.352L719.491 770.382H715.441L719.081 576.352H723.131Z" fill="white"/>
</g>
<mask id="mask10_12194_17630" style="mask-type:luminance" maskUnits="userSpaceOnUse" x="685" y="576" width="131" height="195">
<path d="M815.601 770.382H744.091C701.131 770.382 685.051 756.802 685.051 719.932V576.352H729.401V706.902C729.401 727.132 737.161 734.892 757.391 734.892H815.601V770.382V770.382Z" fill="white"/>
</mask>
<g mask="url(#mask10_12194_17630)">
<path d="M727.182 576.352L723.542 770.382H719.492L723.132 576.352H727.182Z" fill="white"/>
</g>
<mask id="mask11_12194_17630" style="mask-type:luminance" maskUnits="userSpaceOnUse" x="685" y="576" width="131" height="195">
<path d="M815.601 770.382H744.091C701.131 770.382 685.051 756.802 685.051 719.932V576.352H729.401V706.902C729.401 727.132 737.161 734.892 757.391 734.892H815.601V770.382V770.382Z" fill="white"/>
</mask>
<g mask="url(#mask11_12194_17630)">
<path d="M731.229 576.352L727.589 770.382H723.539L727.179 576.352H731.229Z" fill="white"/>
</g>
<mask id="mask12_12194_17630" style="mask-type:luminance" maskUnits="userSpaceOnUse" x="685" y="576" width="131" height="195">
<path d="M815.601 770.382H744.091C701.131 770.382 685.051 756.802 685.051 719.932V576.352H729.401V706.902C729.401 727.132 737.161 734.892 757.391 734.892H815.601V770.382V770.382Z" fill="white"/>
</mask>
<g mask="url(#mask12_12194_17630)">
<path d="M735.28 576.352L731.64 770.382H727.59L731.23 576.352H735.28Z" fill="white"/>
</g>
<mask id="mask13_12194_17630" style="mask-type:luminance" maskUnits="userSpaceOnUse" x="685" y="576" width="131" height="195">
<path d="M815.601 770.382H744.091C701.131 770.382 685.051 756.802 685.051 719.932V576.352H729.401V706.902C729.401 727.132 737.161 734.892 757.391 734.892H815.601V770.382V770.382Z" fill="white"/>
</mask>
<g mask="url(#mask13_12194_17630)">
<path d="M739.331 576.352L735.691 770.382H731.641L735.281 576.352H739.331Z" fill="white"/>
</g>
<mask id="mask14_12194_17630" style="mask-type:luminance" maskUnits="userSpaceOnUse" x="685" y="576" width="131" height="195">
<path d="M815.601 770.382H744.091C701.131 770.382 685.051 756.802 685.051 719.932V576.352H729.401V706.902C729.401 727.132 737.161 734.892 757.391 734.892H815.601V770.382V770.382Z" fill="white"/>
</mask>
<g mask="url(#mask14_12194_17630)">
<path d="M743.391 576.352L739.741 770.382H735.691L739.331 576.352H743.391Z" fill="white"/>
</g>
<mask id="mask15_12194_17630" style="mask-type:luminance" maskUnits="userSpaceOnUse" x="685" y="576" width="131" height="195">
<path d="M815.601 770.382H744.091C701.131 770.382 685.051 756.802 685.051 719.932V576.352H729.401V706.902C729.401 727.132 737.161 734.892 757.391 734.892H815.601V770.382V770.382Z" fill="white"/>
</mask>
<g mask="url(#mask15_12194_17630)">
<path d="M747.442 576.352L743.802 770.382H739.742L743.392 576.352H747.442Z" fill="white"/>
</g>
<mask id="mask16_12194_17630" style="mask-type:luminance" maskUnits="userSpaceOnUse" x="685" y="576" width="131" height="195">
<path d="M815.601 770.382H744.091C701.131 770.382 685.051 756.802 685.051 719.932V576.352H729.401V706.902C729.401 727.132 737.161 734.892 757.391 734.892H815.601V770.382V770.382Z" fill="white"/>
</mask>
<g mask="url(#mask16_12194_17630)">
<path d="M751.491 576.352L747.851 770.382H743.801L747.441 576.352H751.491Z" fill="white"/>
</g>
<mask id="mask17_12194_17630" style="mask-type:luminance" maskUnits="userSpaceOnUse" x="685" y="576" width="131" height="195">
<path d="M815.601 770.382H744.091C701.131 770.382 685.051 756.802 685.051 719.932V576.352H729.401V706.902C729.401 727.132 737.161 734.892 757.391 734.892H815.601V770.382V770.382Z" fill="white"/>
</mask>
<g mask="url(#mask17_12194_17630)">
<path d="M755.542 576.352L751.902 770.382H747.852L751.492 576.352H755.542Z" fill="white"/>
</g>
<mask id="mask18_12194_17630" style="mask-type:luminance" maskUnits="userSpaceOnUse" x="685" y="576" width="131" height="195">
<path d="M815.601 770.382H744.091C701.131 770.382 685.051 756.802 685.051 719.932V576.352H729.401V706.902C729.401 727.132 737.161 734.892 757.391 734.892H815.601V770.382V770.382Z" fill="white"/>
</mask>
<g mask="url(#mask18_12194_17630)">
<path d="M759.592 576.352L755.952 770.382H751.902L755.542 576.352H759.592Z" fill="white"/>
</g>
<mask id="mask19_12194_17630" style="mask-type:luminance" maskUnits="userSpaceOnUse" x="685" y="576" width="131" height="195">
<path d="M815.601 770.382H744.091C701.131 770.382 685.051 756.802 685.051 719.932V576.352H729.401V706.902C729.401 727.132 737.161 734.892 757.391 734.892H815.601V770.382V770.382Z" fill="white"/>
</mask>
<g mask="url(#mask19_12194_17630)">
<path d="M763.639 576.352L759.999 770.382H755.949L759.589 576.352H763.639Z" fill="white"/>
</g>
<mask id="mask20_12194_17630" style="mask-type:luminance" maskUnits="userSpaceOnUse" x="685" y="576" width="131" height="195">
<path d="M815.601 770.382H744.091C701.131 770.382 685.051 756.802 685.051 719.932V576.352H729.401V706.902C729.401 727.132 737.161 734.892 757.391 734.892H815.601V770.382V770.382Z" fill="white"/>
</mask>
<g mask="url(#mask20_12194_17630)">
<path d="M767.69 576.352L764.05 770.382H760L763.64 576.352H767.69Z" fill="white"/>
</g>
<mask id="mask21_12194_17630" style="mask-type:luminance" maskUnits="userSpaceOnUse" x="685" y="576" width="131" height="195">
<path d="M815.601 770.382H744.091C701.131 770.382 685.051 756.802 685.051 719.932V576.352H729.401V706.902C729.401 727.132 737.161 734.892 757.391 734.892H815.601V770.382V770.382Z" fill="white"/>
</mask>
<g mask="url(#mask21_12194_17630)">
<path d="M771.741 576.352L768.101 770.382H764.051L767.691 576.352H771.741Z" fill="white"/>
</g>
<mask id="mask22_12194_17630" style="mask-type:luminance" maskUnits="userSpaceOnUse" x="685" y="576" width="131" height="195">
<path d="M815.601 770.382H744.091C701.131 770.382 685.051 756.802 685.051 719.932V576.352H729.401V706.902C729.401 727.132 737.161 734.892 757.391 734.892H815.601V770.382V770.382Z" fill="white"/>
</mask>
<g mask="url(#mask22_12194_17630)">
<path d="M775.802 576.352L772.152 770.382H768.102L771.742 576.352H775.802Z" fill="white"/>
</g>
<mask id="mask23_12194_17630" style="mask-type:luminance" maskUnits="userSpaceOnUse" x="685" y="576" width="131" height="195">
<path d="M815.601 770.382H744.091C701.131 770.382 685.051 756.802 685.051 719.932V576.352H729.401V706.902C729.401 727.132 737.161 734.892 757.391 734.892H815.601V770.382V770.382Z" fill="white"/>
</mask>
<g mask="url(#mask23_12194_17630)">
<path d="M779.852 576.352L776.212 770.382H772.152L775.802 576.352H779.852Z" fill="white"/>
</g>
<mask id="mask24_12194_17630" style="mask-type:luminance" maskUnits="userSpaceOnUse" x="685" y="576" width="131" height="195">
<path d="M815.601 770.382H744.091C701.131 770.382 685.051 756.802 685.051 719.932V576.352H729.401V706.902C729.401 727.132 737.161 734.892 757.391 734.892H815.601V770.382V770.382Z" fill="white"/>
</mask>
<g mask="url(#mask24_12194_17630)">
<path d="M783.901 576.352L780.261 770.382H776.211L779.851 576.352H783.901Z" fill="white"/>
</g>
<mask id="mask25_12194_17630" style="mask-type:luminance" maskUnits="userSpaceOnUse" x="685" y="576" width="131" height="195">
<path d="M815.601 770.382H744.091C701.131 770.382 685.051 756.802 685.051 719.932V576.352H729.401V706.902C729.401 727.132 737.161 734.892 757.391 734.892H815.601V770.382V770.382Z" fill="white"/>
</mask>
<g mask="url(#mask25_12194_17630)">
<path d="M787.952 576.352L784.312 770.382H780.262L783.902 576.352H787.952Z" fill="white"/>
</g>
<mask id="mask26_12194_17630" style="mask-type:luminance" maskUnits="userSpaceOnUse" x="685" y="576" width="131" height="195">
<path d="M815.601 770.382H744.091C701.131 770.382 685.051 756.802 685.051 719.932V576.352H729.401V706.902C729.401 727.132 737.161 734.892 757.391 734.892H815.601V770.382V770.382Z" fill="white"/>
</mask>
<g mask="url(#mask26_12194_17630)">
<path d="M792.003 576.352L788.362 770.382H784.312L787.953 576.352H792.003Z" fill="white"/>
</g>
<mask id="mask27_12194_17630" style="mask-type:luminance" maskUnits="userSpaceOnUse" x="685" y="576" width="131" height="195">
<path d="M815.601 770.382H744.091C701.131 770.382 685.051 756.802 685.051 719.932V576.352H729.401V706.902C729.401 727.132 737.161 734.892 757.391 734.892H815.601V770.382V770.382Z" fill="white"/>
</mask>
<g mask="url(#mask27_12194_17630)">
<path d="M796.049 576.352L792.409 770.382H788.359L791.999 576.352H796.049Z" fill="white"/>
</g>
<mask id="mask28_12194_17630" style="mask-type:luminance" maskUnits="userSpaceOnUse" x="685" y="576" width="131" height="195">
<path d="M815.601 770.382H744.091C701.131 770.382 685.051 756.802 685.051 719.932V576.352H729.401V706.902C729.401 727.132 737.161 734.892 757.391 734.892H815.601V770.382V770.382Z" fill="white"/>
</mask>
<g mask="url(#mask28_12194_17630)">
<path d="M800.1 576.352L796.46 770.382H792.41L796.05 576.352H800.1Z" fill="white"/>
</g>
<mask id="mask29_12194_17630" style="mask-type:luminance" maskUnits="userSpaceOnUse" x="685" y="576" width="131" height="195">
<path d="M815.601 770.382H744.091C701.131 770.382 685.051 756.802 685.051 719.932V576.352H729.401V706.902C729.401 727.132 737.161 734.892 757.391 734.892H815.601V770.382V770.382Z" fill="white"/>
</mask>
<g mask="url(#mask29_12194_17630)">
<path d="M804.151 576.352L800.511 770.382H796.461L800.101 576.352H804.151Z" fill="white"/>
</g>
<mask id="mask30_12194_17630" style="mask-type:luminance" maskUnits="userSpaceOnUse" x="685" y="576" width="131" height="195">
<path d="M815.601 770.382H744.091C701.131 770.382 685.051 756.802 685.051 719.932V576.352H729.401V706.902C729.401 727.132 737.161 734.892 757.391 734.892H815.601V770.382V770.382Z" fill="white"/>
</mask>
<g mask="url(#mask30_12194_17630)">
<path d="M808.212 576.352L804.562 770.382H800.512L804.152 576.352H808.212Z" fill="white"/>
</g>
<mask id="mask31_12194_17630" style="mask-type:luminance" maskUnits="userSpaceOnUse" x="685" y="576" width="131" height="195">
<path d="M815.601 770.382H744.091C701.131 770.382 685.051 756.802 685.051 719.932V576.352H729.401V706.902C729.401 727.132 737.161 734.892 757.391 734.892H815.601V770.382V770.382Z" fill="white"/>
</mask>
<g mask="url(#mask31_12194_17630)">
<path d="M812.263 576.352L808.622 770.382H804.562L808.213 576.352H812.263Z" fill="white"/>
</g>
<mask id="mask32_12194_17630" style="mask-type:luminance" maskUnits="userSpaceOnUse" x="685" y="576" width="131" height="195">
<path d="M815.601 770.382H744.091C701.131 770.382 685.051 756.802 685.051 719.932V576.352H729.401V706.902C729.401 727.132 737.161 734.892 757.391 734.892H815.601V770.382V770.382Z" fill="white"/>
</mask>
<g mask="url(#mask32_12194_17630)">
<path d="M815.601 614.152L812.671 770.382H808.621L812.261 576.352H815.601V614.152Z" fill="white"/>
</g>
<mask id="mask33_12194_17630" style="mask-type:luminance" maskUnits="userSpaceOnUse" x="685" y="576" width="131" height="195">
<path d="M815.601 770.382H744.091C701.131 770.382 685.051 756.802 685.051 719.932V576.352H729.401V706.902C729.401 727.132 737.161 734.892 757.391 734.892H815.601V770.382V770.382Z" fill="white"/>
</mask>
<g mask="url(#mask33_12194_17630)">
<path d="M812.672 770.382L815.602 614.152V770.382H812.672Z" fill="white"/>
</g>
<mask id="mask34_12194_17630" style="mask-type:luminance" maskUnits="userSpaceOnUse" x="840" y="576" width="46" height="195">
<path d="M885.162 770.382H840.812V576.352H885.162V770.382Z" fill="white"/>
</mask>
<g mask="url(#mask34_12194_17630)">
<path d="M844.672 576.352L841.033 770.382H840.812V576.352H844.672Z" fill="white"/>
</g>
<mask id="mask35_12194_17630" style="mask-type:luminance" maskUnits="userSpaceOnUse" x="840" y="576" width="46" height="195">
<path d="M885.162 770.382H840.812V576.352H885.162V770.382Z" fill="white"/>
</mask>
<g mask="url(#mask35_12194_17630)">
<path d="M848.721 576.352L845.081 770.382H841.031L844.671 576.352H848.721Z" fill="white"/>
</g>
<mask id="mask36_12194_17630" style="mask-type:luminance" maskUnits="userSpaceOnUse" x="840" y="576" width="46" height="195">
<path d="M885.162 770.382H840.812V576.352H885.162V770.382Z" fill="white"/>
</mask>
<g mask="url(#mask36_12194_17630)">
<path d="M852.772 576.352L849.132 770.382H845.082L848.722 576.352H852.772Z" fill="white"/>
</g>
<mask id="mask37_12194_17630" style="mask-type:luminance" maskUnits="userSpaceOnUse" x="840" y="576" width="46" height="195">
<path d="M885.162 770.382H840.812V576.352H885.162V770.382Z" fill="white"/>
</mask>
<g mask="url(#mask37_12194_17630)">
<path d="M856.823 576.352L853.183 770.382H849.133L852.773 576.352H856.823Z" fill="white"/>
</g>
<mask id="mask38_12194_17630" style="mask-type:luminance" maskUnits="userSpaceOnUse" x="840" y="576" width="46" height="195">
<path d="M885.162 770.382H840.812V576.352H885.162V770.382Z" fill="white"/>
</mask>
<g mask="url(#mask38_12194_17630)">
<path d="M860.874 576.352L857.234 770.382H853.184L856.824 576.352H860.874Z" fill="white"/>
</g>
<mask id="mask39_12194_17630" style="mask-type:luminance" maskUnits="userSpaceOnUse" x="840" y="576" width="46" height="195">
<path d="M885.162 770.382H840.812V576.352H885.162V770.382Z" fill="white"/>
</mask>
<g mask="url(#mask39_12194_17630)">
<path d="M864.924 576.352L861.284 770.382H857.234L860.874 576.352H864.924Z" fill="white"/>
</g>
<mask id="mask40_12194_17630" style="mask-type:luminance" maskUnits="userSpaceOnUse" x="840" y="576" width="46" height="195">
<path d="M885.162 770.382H840.812V576.352H885.162V770.382Z" fill="white"/>
</mask>
<g mask="url(#mask40_12194_17630)">
<path d="M868.971 576.352L865.331 770.382H861.281L864.921 576.352H868.971Z" fill="white"/>
</g>
<mask id="mask41_12194_17630" style="mask-type:luminance" maskUnits="userSpaceOnUse" x="840" y="576" width="46" height="195">
<path d="M885.162 770.382H840.812V576.352H885.162V770.382Z" fill="white"/>
</mask>
<g mask="url(#mask41_12194_17630)">
<path d="M865.332 770.382L868.972 576.352H885.162V770.382H865.332Z" fill="white"/>
</g>
<mask id="mask42_12194_17630" style="mask-type:luminance" maskUnits="userSpaceOnUse" x="97" y="635" width="145" height="195">
<path d="M241.618 670.832H191.728V829.382H147.378V670.832H97.4883V635.352H241.628V670.832H241.618Z" fill="white"/>
</mask>
<g mask="url(#mask42_12194_17630)">
<path d="M99.4383 635.352L97.4883 739.182V635.352H99.4383Z" fill="white"/>
</g>
<mask id="mask43_12194_17630" style="mask-type:luminance" maskUnits="userSpaceOnUse" x="97" y="635" width="145" height="195">
<path d="M241.618 670.832H191.728V829.382H147.378V670.832H97.4883V635.352H241.628V670.832H241.618Z" fill="white"/>
</mask>
<g mask="url(#mask43_12194_17630)">
<path d="M104.478 635.352L100.838 829.382H97.4883V739.182L99.4383 635.352H104.478Z" fill="white"/>
</g>
<mask id="mask44_12194_17630" style="mask-type:luminance" maskUnits="userSpaceOnUse" x="97" y="635" width="145" height="195">
<path d="M241.618 670.832H191.728V829.382H147.378V670.832H97.4883V635.352H241.628V670.832H241.618Z" fill="white"/>
</mask>
<g mask="url(#mask44_12194_17630)">
<path d="M109.52 635.352L105.88 829.382H100.84L104.48 635.352H109.52Z" fill="white"/>
</g>
<mask id="mask45_12194_17630" style="mask-type:luminance" maskUnits="userSpaceOnUse" x="97" y="635" width="145" height="195">
<path d="M241.618 670.832H191.728V829.382H147.378V670.832H97.4883V635.352H241.628V670.832H241.618Z" fill="white"/>
</mask>
<g mask="url(#mask45_12194_17630)">
<path d="M114.569 635.352L110.929 829.382H105.879L109.519 635.352H114.569Z" fill="white"/>
</g>
<mask id="mask46_12194_17630" style="mask-type:luminance" maskUnits="userSpaceOnUse" x="97" y="635" width="145" height="195">
<path d="M241.618 670.832H191.728V829.382H147.378V670.832H97.4883V635.352H241.628V670.832H241.618Z" fill="white"/>
</mask>
<g mask="url(#mask46_12194_17630)">
<path d="M119.61 635.352L115.97 829.382H110.93L114.57 635.352H119.61Z" fill="white"/>
</g>
<mask id="mask47_12194_17630" style="mask-type:luminance" maskUnits="userSpaceOnUse" x="97" y="635" width="145" height="195">
<path d="M241.618 670.832H191.728V829.382H147.378V670.832H97.4883V635.352H241.628V670.832H241.618Z" fill="white"/>
</mask>
<g mask="url(#mask47_12194_17630)">
<path d="M124.649 635.352L121.009 829.382H115.969L119.609 635.352H124.649Z" fill="white"/>
</g>
<mask id="mask48_12194_17630" style="mask-type:luminance" maskUnits="userSpaceOnUse" x="97" y="635" width="145" height="195">
<path d="M241.618 670.832H191.728V829.382H147.378V670.832H97.4883V635.352H241.628V670.832H241.618Z" fill="white"/>
</mask>
<g mask="url(#mask48_12194_17630)">
<path d="M129.698 635.352L126.058 829.382H121.008L124.648 635.352H129.698Z" fill="white"/>
</g>
<mask id="mask49_12194_17630" style="mask-type:luminance" maskUnits="userSpaceOnUse" x="97" y="635" width="145" height="195">
<path d="M241.618 670.832H191.728V829.382H147.378V670.832H97.4883V635.352H241.628V670.832H241.618Z" fill="white"/>
</mask>
<g mask="url(#mask49_12194_17630)">
<path d="M134.739 635.352L131.099 829.382H126.059L129.699 635.352H134.739Z" fill="white"/>
</g>
<mask id="mask50_12194_17630" style="mask-type:luminance" maskUnits="userSpaceOnUse" x="97" y="635" width="145" height="195">
<path d="M241.618 670.832H191.728V829.382H147.378V670.832H97.4883V635.352H241.628V670.832H241.618Z" fill="white"/>
</mask>
<g mask="url(#mask50_12194_17630)">
<path d="M139.778 635.352L136.138 829.382H131.098L134.738 635.352H139.778Z" fill="white"/>
</g>
<mask id="mask51_12194_17630" style="mask-type:luminance" maskUnits="userSpaceOnUse" x="97" y="635" width="145" height="195">
<path d="M241.618 670.832H191.728V829.382H147.378V670.832H97.4883V635.352H241.628V670.832H241.618Z" fill="white"/>
</mask>
<g mask="url(#mask51_12194_17630)">
<path d="M144.827 635.352L141.187 829.382H136.137L139.777 635.352H144.827Z" fill="white"/>
</g>
<mask id="mask52_12194_17630" style="mask-type:luminance" maskUnits="userSpaceOnUse" x="97" y="635" width="145" height="195">
<path d="M241.618 670.832H191.728V829.382H147.378V670.832H97.4883V635.352H241.628V670.832H241.618Z" fill="white"/>
</mask>
<g mask="url(#mask52_12194_17630)">
<path d="M149.867 635.352L146.227 829.382H141.188L144.827 635.352H149.867Z" fill="white"/>
</g>
<mask id="mask53_12194_17630" style="mask-type:luminance" maskUnits="userSpaceOnUse" x="97" y="635" width="145" height="195">
<path d="M241.618 670.832H191.728V829.382H147.378V670.832H97.4883V635.352H241.628V670.832H241.618Z" fill="white"/>
</mask>
<g mask="url(#mask53_12194_17630)">
<path d="M154.917 635.352L151.267 829.382H146.227L149.867 635.352H154.917Z" fill="white"/>
</g>
<mask id="mask54_12194_17630" style="mask-type:luminance" maskUnits="userSpaceOnUse" x="97" y="635" width="145" height="195">
<path d="M241.618 670.832H191.728V829.382H147.378V670.832H97.4883V635.352H241.628V670.832H241.618Z" fill="white"/>
</mask>
<g mask="url(#mask54_12194_17630)">
<path d="M159.96 635.352L156.32 829.382H151.27L154.92 635.352H159.96Z" fill="white"/>
</g>
<mask id="mask55_12194_17630" style="mask-type:luminance" maskUnits="userSpaceOnUse" x="97" y="635" width="145" height="195">
<path d="M241.618 670.832H191.728V829.382H147.378V670.832H97.4883V635.352H241.628V670.832H241.618Z" fill="white"/>
</mask>
<g mask="url(#mask55_12194_17630)">
<path d="M164.996 635.352L161.356 829.382H156.316L159.956 635.352H164.996Z" fill="white"/>
</g>
<mask id="mask56_12194_17630" style="mask-type:luminance" maskUnits="userSpaceOnUse" x="97" y="635" width="145" height="195">
<path d="M241.618 670.832H191.728V829.382H147.378V670.832H97.4883V635.352H241.628V670.832H241.618Z" fill="white"/>
</mask>
<g mask="url(#mask56_12194_17630)">
<path d="M170.049 635.352L166.399 829.382H161.359L164.999 635.352H170.049Z" fill="white"/>
</g>
<mask id="mask57_12194_17630" style="mask-type:luminance" maskUnits="userSpaceOnUse" x="97" y="635" width="145" height="195">
<path d="M241.618 670.832H191.728V829.382H147.378V670.832H97.4883V635.352H241.628V670.832H241.618Z" fill="white"/>
</mask>
<g mask="url(#mask57_12194_17630)">
<path d="M175.088 635.352L171.448 829.382H166.398L170.048 635.352H175.088Z" fill="white"/>
</g>
<mask id="mask58_12194_17630" style="mask-type:luminance" maskUnits="userSpaceOnUse" x="97" y="635" width="145" height="195">
<path d="M241.618 670.832H191.728V829.382H147.378V670.832H97.4883V635.352H241.628V670.832H241.618Z" fill="white"/>
</mask>
<g mask="url(#mask58_12194_17630)">
<path d="M180.129 635.352L176.489 829.382H171.449L175.089 635.352H180.129Z" fill="white"/>
</g>
<mask id="mask59_12194_17630" style="mask-type:luminance" maskUnits="userSpaceOnUse" x="97" y="635" width="145" height="195">
<path d="M241.618 670.832H191.728V829.382H147.378V670.832H97.4883V635.352H241.628V670.832H241.618Z" fill="white"/>
</mask>
<g mask="url(#mask59_12194_17630)">
<path d="M185.178 635.352L181.528 829.382H176.488L180.128 635.352H185.178Z" fill="white"/>
</g>
<mask id="mask60_12194_17630" style="mask-type:luminance" maskUnits="userSpaceOnUse" x="97" y="635" width="145" height="195">
<path d="M241.618 670.832H191.728V829.382H147.378V670.832H97.4883V635.352H241.628V670.832H241.618Z" fill="white"/>
</mask>
<g mask="url(#mask60_12194_17630)">
<path d="M190.217 635.352L186.577 829.382H181.527L185.177 635.352H190.217Z" fill="white"/>
</g>
<mask id="mask61_12194_17630" style="mask-type:luminance" maskUnits="userSpaceOnUse" x="97" y="635" width="145" height="195">
<path d="M241.618 670.832H191.728V829.382H147.378V670.832H97.4883V635.352H241.628V670.832H241.618Z" fill="white"/>
</mask>
<g mask="url(#mask61_12194_17630)">
<path d="M195.258 635.352L191.618 829.382H186.578L190.218 635.352H195.258Z" fill="white"/>
</g>
<mask id="mask62_12194_17630" style="mask-type:luminance" maskUnits="userSpaceOnUse" x="97" y="635" width="145" height="195">
<path d="M241.618 670.832H191.728V829.382H147.378V670.832H97.4883V635.352H241.628V670.832H241.618Z" fill="white"/>
</mask>
<g mask="url(#mask62_12194_17630)">
<path d="M200.307 635.352L196.657 829.382H191.617L195.257 635.352H200.307Z" fill="white"/>
</g>
<mask id="mask63_12194_17630" style="mask-type:luminance" maskUnits="userSpaceOnUse" x="97" y="635" width="145" height="195">
<path d="M241.618 670.832H191.728V829.382H147.378V670.832H97.4883V635.352H241.628V670.832H241.618Z" fill="white"/>
</mask>
<g mask="url(#mask63_12194_17630)">
<path d="M205.35 635.352L201.71 829.382H196.66L200.31 635.352H205.35Z" fill="white"/>
</g>
<mask id="mask64_12194_17630" style="mask-type:luminance" maskUnits="userSpaceOnUse" x="97" y="635" width="145" height="195">
<path d="M241.618 670.832H191.728V829.382H147.378V670.832H97.4883V635.352H241.628V670.832H241.618Z" fill="white"/>
</mask>
<g mask="url(#mask64_12194_17630)">
<path d="M210.387 635.352L206.747 829.382H201.707L205.347 635.352H210.387Z" fill="white"/>
</g>
<mask id="mask65_12194_17630" style="mask-type:luminance" maskUnits="userSpaceOnUse" x="97" y="635" width="145" height="195">
<path d="M241.618 670.832H191.728V829.382H147.378V670.832H97.4883V635.352H241.628V670.832H241.618Z" fill="white"/>
</mask>
<g mask="url(#mask65_12194_17630)">
<path d="M215.44 635.352L211.8 829.382H206.75L210.39 635.352H215.44Z" fill="white"/>
</g>
<mask id="mask66_12194_17630" style="mask-type:luminance" maskUnits="userSpaceOnUse" x="97" y="635" width="145" height="195">
<path d="M241.618 670.832H191.728V829.382H147.378V670.832H97.4883V635.352H241.628V670.832H241.618Z" fill="white"/>
</mask>
<g mask="url(#mask66_12194_17630)">
<path d="M220.477 635.352L216.837 829.382H211.797L215.437 635.352H220.477Z" fill="white"/>
</g>
<mask id="mask67_12194_17630" style="mask-type:luminance" maskUnits="userSpaceOnUse" x="97" y="635" width="145" height="195">
<path d="M241.618 670.832H191.728V829.382H147.378V670.832H97.4883V635.352H241.628V670.832H241.618Z" fill="white"/>
</mask>
<g mask="url(#mask67_12194_17630)">
<path d="M225.52 635.352L221.88 829.382H216.84L220.48 635.352H225.52Z" fill="white"/>
</g>
<mask id="mask68_12194_17630" style="mask-type:luminance" maskUnits="userSpaceOnUse" x="97" y="635" width="145" height="195">
<path d="M241.618 670.832H191.728V829.382H147.378V670.832H97.4883V635.352H241.628V670.832H241.618Z" fill="white"/>
</mask>
<g mask="url(#mask68_12194_17630)">
<path d="M230.569 635.352L226.929 829.382H221.879L225.519 635.352H230.569Z" fill="white"/>
</g>
<mask id="mask69_12194_17630" style="mask-type:luminance" maskUnits="userSpaceOnUse" x="97" y="635" width="145" height="195">
<path d="M241.618 670.832H191.728V829.382H147.378V670.832H97.4883V635.352H241.628V670.832H241.618Z" fill="white"/>
</mask>
<g mask="url(#mask69_12194_17630)">
<path d="M235.61 635.352L231.97 829.382H226.93L230.57 635.352H235.61Z" fill="white"/>
</g>
<mask id="mask70_12194_17630" style="mask-type:luminance" maskUnits="userSpaceOnUse" x="97" y="635" width="145" height="195">
<path d="M241.618 670.832H191.728V829.382H147.378V670.832H97.4883V635.352H241.628V670.832H241.618Z" fill="white"/>
</mask>
<g mask="url(#mask70_12194_17630)">
<path d="M240.649 635.352L237.009 829.382H231.969L235.609 635.352H240.649Z" fill="white"/>
</g>
<mask id="mask71_12194_17630" style="mask-type:luminance" maskUnits="userSpaceOnUse" x="97" y="635" width="145" height="195">
<path d="M241.618 670.832H191.728V829.382H147.378V670.832H97.4883V635.352H241.628V670.832H241.618Z" fill="white"/>
</mask>
<g mask="url(#mask71_12194_17630)">
<path d="M237.008 829.382L240.648 635.352H241.618V829.382H237.008Z" fill="white"/>
</g>
<mask id="mask72_12194_17630" style="mask-type:luminance" maskUnits="userSpaceOnUse" x="221" y="635" width="202" height="195">
<path d="M361.351 791.962H283.181L269.871 829.382H221.641L298.971 635.352H345.541L422.871 829.382H374.641L361.351 791.962ZM349.711 759.532L322.551 682.752L295.111 759.532H349.711Z" fill="white"/>
</mask>
<g mask="url(#mask72_12194_17630)">
<path d="M295.239 682.75L295.109 689.93V682.75H295.239Z" fill="white"/>
</g>
<mask id="mask73_12194_17630" style="mask-type:luminance" maskUnits="userSpaceOnUse" x="221" y="635" width="202" height="195">
<path d="M361.351 791.962H283.181L269.871 829.382H221.641L298.971 635.352H345.541L422.871 829.382H374.641L361.351 791.962ZM349.711 759.532L322.551 682.752L295.111 759.532H349.711Z" fill="white"/>
</mask>
<g mask="url(#mask73_12194_17630)">
<path d="M300.289 682.75L298.839 759.53H295.109V689.93L295.239 682.75H300.289Z" fill="white"/>
</g>
<mask id="mask74_12194_17630" style="mask-type:luminance" maskUnits="userSpaceOnUse" x="221" y="635" width="202" height="195">
<path d="M361.351 791.962H283.181L269.871 829.382H221.641L298.971 635.352H345.541L422.871 829.382H374.641L361.351 791.962ZM349.711 759.532L322.551 682.752L295.111 759.532H349.711Z" fill="white"/>
</mask>
<g mask="url(#mask74_12194_17630)">
<path d="M305.33 682.75L303.89 759.53H298.84L300.29 682.75H305.33Z" fill="white"/>
</g>
<mask id="mask75_12194_17630" style="mask-type:luminance" maskUnits="userSpaceOnUse" x="221" y="635" width="202" height="195">
<path d="M361.351 791.962H283.181L269.871 829.382H221.641L298.971 635.352H345.541L422.871 829.382H374.641L361.351 791.962ZM349.711 759.532L322.551 682.752L295.111 759.532H349.711Z" fill="white"/>
</mask>
<g mask="url(#mask75_12194_17630)">
<path d="M310.371 682.75L308.931 759.53H303.891L305.331 682.75H310.371Z" fill="white"/>
</g>
<mask id="mask76_12194_17630" style="mask-type:luminance" maskUnits="userSpaceOnUse" x="221" y="635" width="202" height="195">
<path d="M361.351 791.962H283.181L269.871 829.382H221.641L298.971 635.352H345.541L422.871 829.382H374.641L361.351 791.962ZM349.711 759.532L322.551 682.752L295.111 759.532H349.711Z" fill="white"/>
</mask>
<g mask="url(#mask76_12194_17630)">
<path d="M315.42 682.75L313.98 759.53H308.93L310.37 682.75H315.42Z" fill="white"/>
</g>
<mask id="mask77_12194_17630" style="mask-type:luminance" maskUnits="userSpaceOnUse" x="221" y="635" width="202" height="195">
<path d="M361.351 791.962H283.181L269.871 829.382H221.641L298.971 635.352H345.541L422.871 829.382H374.641L361.351 791.962ZM349.711 759.532L322.551 682.752L295.111 759.532H349.711Z" fill="white"/>
</mask>
<g mask="url(#mask77_12194_17630)">
<path d="M320.46 682.75L319.02 759.53H313.98L315.42 682.75H320.46Z" fill="white"/>
</g>
<mask id="mask78_12194_17630" style="mask-type:luminance" maskUnits="userSpaceOnUse" x="221" y="635" width="202" height="195">
<path d="M361.351 791.962H283.181L269.871 829.382H221.641L298.971 635.352H345.541L422.871 829.382H374.641L361.351 791.962ZM349.711 759.532L322.551 682.752L295.111 759.532H349.711Z" fill="white"/>
</mask>
<g mask="url(#mask78_12194_17630)">
<path d="M325.5 682.75L324.06 759.53H319.02L320.46 682.75H325.5Z" fill="white"/>
</g>
<mask id="mask79_12194_17630" style="mask-type:luminance" maskUnits="userSpaceOnUse" x="221" y="635" width="202" height="195">
<path d="M361.351 791.962H283.181L269.871 829.382H221.641L298.971 635.352H345.541L422.871 829.382H374.641L361.351 791.962ZM349.711 759.532L322.551 682.752L295.111 759.532H349.711Z" fill="white"/>
</mask>
<g mask="url(#mask79_12194_17630)">
<path d="M330.552 682.75L329.112 759.53H324.062L325.503 682.75H330.552Z" fill="white"/>
</g>
<mask id="mask80_12194_17630" style="mask-type:luminance" maskUnits="userSpaceOnUse" x="221" y="635" width="202" height="195">
<path d="M361.351 791.962H283.181L269.871 829.382H221.641L298.971 635.352H345.541L422.871 829.382H374.641L361.351 791.962ZM349.711 759.532L322.551 682.752L295.111 759.532H349.711Z" fill="white"/>
</mask>
<g mask="url(#mask80_12194_17630)">
<path d="M335.589 682.75L334.149 759.53H329.109L330.549 682.75H335.589Z" fill="white"/>
</g>
<mask id="mask81_12194_17630" style="mask-type:luminance" maskUnits="userSpaceOnUse" x="221" y="635" width="202" height="195">
<path d="M361.351 791.962H283.181L269.871 829.382H221.641L298.971 635.352H345.541L422.871 829.382H374.641L361.351 791.962ZM349.711 759.532L322.551 682.752L295.111 759.532H349.711Z" fill="white"/>
</mask>
<g mask="url(#mask81_12194_17630)">
<path d="M340.632 682.75L339.192 759.53H334.152L335.592 682.75H340.632Z" fill="white"/>
</g>
<mask id="mask82_12194_17630" style="mask-type:luminance" maskUnits="userSpaceOnUse" x="221" y="635" width="202" height="195">
<path d="M361.351 791.962H283.181L269.871 829.382H221.641L298.971 635.352H345.541L422.871 829.382H374.641L361.351 791.962ZM349.711 759.532L322.551 682.752L295.111 759.532H349.711Z" fill="white"/>
</mask>
<g mask="url(#mask82_12194_17630)">
<path d="M345.681 682.75L344.241 759.53H339.191L340.631 682.75H345.681Z" fill="white"/>
</g>
<mask id="mask83_12194_17630" style="mask-type:luminance" maskUnits="userSpaceOnUse" x="221" y="635" width="202" height="195">
<path d="M361.351 791.962H283.181L269.871 829.382H221.641L298.971 635.352H345.541L422.871 829.382H374.641L361.351 791.962ZM349.711 759.532L322.551 682.752L295.111 759.532H349.711Z" fill="white"/>
</mask>
<g mask="url(#mask83_12194_17630)">
<path d="M349.712 736.39L349.282 759.53H344.242L345.682 682.75H349.712V736.39Z" fill="white"/>
</g>
<mask id="mask84_12194_17630" style="mask-type:luminance" maskUnits="userSpaceOnUse" x="221" y="635" width="202" height="195">
<path d="M361.351 791.962H283.181L269.871 829.382H221.641L298.971 635.352H345.541L422.871 829.382H374.641L361.351 791.962ZM349.711 759.532L322.551 682.752L295.111 759.532H349.711Z" fill="white"/>
</mask>
<g mask="url(#mask84_12194_17630)">
<path d="M349.281 759.531L349.711 736.391V759.531H349.281Z" fill="white"/>
</g>
<mask id="mask85_12194_17630" style="mask-type:luminance" maskUnits="userSpaceOnUse" x="221" y="635" width="202" height="195">
<path d="M361.351 791.962H283.181L269.871 829.382H221.641L298.971 635.352H345.541L422.871 829.382H374.641L361.351 791.962ZM349.711 759.532L322.551 682.752L295.111 759.532H349.711Z" fill="white"/>
</mask>
<g mask="url(#mask85_12194_17630)">
<path d="M225.522 635.352L221.882 829.382H221.652V635.352H225.522Z" fill="white"/>
</g>
<mask id="mask86_12194_17630" style="mask-type:luminance" maskUnits="userSpaceOnUse" x="221" y="635" width="202" height="195">
<path d="M361.351 791.962H283.181L269.871 829.382H221.641L298.971 635.352H345.541L422.871 829.382H374.641L361.351 791.962ZM349.711 759.532L322.551 682.752L295.111 759.532H349.711Z" fill="white"/>
</mask>
<g mask="url(#mask86_12194_17630)">
<path d="M230.569 635.352L226.929 829.382H221.879L225.519 635.352H230.569Z" fill="white"/>
</g>
<mask id="mask87_12194_17630" style="mask-type:luminance" maskUnits="userSpaceOnUse" x="221" y="635" width="202" height="195">
<path d="M361.351 791.962H283.181L269.871 829.382H221.641L298.971 635.352H345.541L422.871 829.382H374.641L361.351 791.962ZM349.711 759.532L322.551 682.752L295.111 759.532H349.711Z" fill="white"/>
</mask>
<g mask="url(#mask87_12194_17630)">
<path d="M235.61 635.352L231.97 829.382H226.93L230.57 635.352H235.61Z" fill="white"/>
</g>
<mask id="mask88_12194_17630" style="mask-type:luminance" maskUnits="userSpaceOnUse" x="221" y="635" width="202" height="195">
<path d="M361.351 791.962H283.181L269.871 829.382H221.641L298.971 635.352H345.541L422.871 829.382H374.641L361.351 791.962ZM349.711 759.532L322.551 682.752L295.111 759.532H349.711Z" fill="white"/>
</mask>
<g mask="url(#mask88_12194_17630)">
<path d="M240.649 635.352L237.009 829.382H231.969L235.609 635.352H240.649Z" fill="white"/>
</g>
<mask id="mask89_12194_17630" style="mask-type:luminance" maskUnits="userSpaceOnUse" x="221" y="635" width="202" height="195">
<path d="M361.351 791.962H283.181L269.871 829.382H221.641L298.971 635.352H345.541L422.871 829.382H374.641L361.351 791.962ZM349.711 759.532L322.551 682.752L295.111 759.532H349.711Z" fill="white"/>
</mask>
<g mask="url(#mask89_12194_17630)">
<path d="M245.702 635.352L242.062 829.382H237.012L240.652 635.352H245.702Z" fill="white"/>
</g>
<mask id="mask90_12194_17630" style="mask-type:luminance" maskUnits="userSpaceOnUse" x="221" y="635" width="202" height="195">
<path d="M361.351 791.962H283.181L269.871 829.382H221.641L298.971 635.352H345.541L422.871 829.382H374.641L361.351 791.962ZM349.711 759.532L322.551 682.752L295.111 759.532H349.711Z" fill="white"/>
</mask>
<g mask="url(#mask90_12194_17630)">
<path d="M250.743 635.352L247.103 829.382H242.062L245.702 635.352H250.743Z" fill="white"/>
</g>
<mask id="mask91_12194_17630" style="mask-type:luminance" maskUnits="userSpaceOnUse" x="221" y="635" width="202" height="195">
<path d="M361.351 791.962H283.181L269.871 829.382H221.641L298.971 635.352H345.541L422.871 829.382H374.641L361.351 791.962ZM349.711 759.532L322.551 682.752L295.111 759.532H349.711Z" fill="white"/>
</mask>
<g mask="url(#mask91_12194_17630)">
<path d="M255.782 635.352L252.142 829.382H247.102L250.742 635.352H255.782Z" fill="white"/>
</g>
<mask id="mask92_12194_17630" style="mask-type:luminance" maskUnits="userSpaceOnUse" x="221" y="635" width="202" height="195">
<path d="M361.351 791.962H283.181L269.871 829.382H221.641L298.971 635.352H345.541L422.871 829.382H374.641L361.351 791.962ZM349.711 759.532L322.551 682.752L295.111 759.532H349.711Z" fill="white"/>
</mask>
<g mask="url(#mask92_12194_17630)">
<path d="M260.831 635.352L257.191 829.382H252.141L255.781 635.352H260.831Z" fill="white"/>
</g>
<mask id="mask93_12194_17630" style="mask-type:luminance" maskUnits="userSpaceOnUse" x="221" y="635" width="202" height="195">
<path d="M361.351 791.962H283.181L269.871 829.382H221.641L298.971 635.352H345.541L422.871 829.382H374.641L361.351 791.962ZM349.711 759.532L322.551 682.752L295.111 759.532H349.711Z" fill="white"/>
</mask>
<g mask="url(#mask93_12194_17630)">
<path d="M265.871 635.352L262.231 829.382H257.191L260.831 635.352H265.871Z" fill="white"/>
</g>
<mask id="mask94_12194_17630" style="mask-type:luminance" maskUnits="userSpaceOnUse" x="221" y="635" width="202" height="195">
<path d="M361.351 791.962H283.181L269.871 829.382H221.641L298.971 635.352H345.541L422.871 829.382H374.641L361.351 791.962ZM349.711 759.532L322.551 682.752L295.111 759.532H349.711Z" fill="white"/>
</mask>
<g mask="url(#mask94_12194_17630)">
<path d="M270.91 635.352L267.27 829.382H262.23L265.87 635.352H270.91Z" fill="white"/>
</g>
<mask id="mask95_12194_17630" style="mask-type:luminance" maskUnits="userSpaceOnUse" x="221" y="635" width="202" height="195">
<path d="M361.351 791.962H283.181L269.871 829.382H221.641L298.971 635.352H345.541L422.871 829.382H374.641L361.351 791.962ZM349.711 759.532L322.551 682.752L295.111 759.532H349.711Z" fill="white"/>
</mask>
<g mask="url(#mask95_12194_17630)">
<path d="M275.96 635.352L272.32 829.382H267.27L270.91 635.352H275.96Z" fill="white"/>
</g>
<mask id="mask96_12194_17630" style="mask-type:luminance" maskUnits="userSpaceOnUse" x="221" y="635" width="202" height="195">
<path d="M361.351 791.962H283.181L269.871 829.382H221.641L298.971 635.352H345.541L422.871 829.382H374.641L361.351 791.962ZM349.711 759.532L322.551 682.752L295.111 759.532H349.711Z" fill="white"/>
</mask>
<g mask="url(#mask96_12194_17630)">
<path d="M281 635.352L277.36 829.382H272.32L275.96 635.352H281Z" fill="white"/>
</g>
<mask id="mask97_12194_17630" style="mask-type:luminance" maskUnits="userSpaceOnUse" x="221" y="635" width="202" height="195">
<path d="M361.351 791.962H283.181L269.871 829.382H221.641L298.971 635.352H345.541L422.871 829.382H374.641L361.351 791.962ZM349.711 759.532L322.551 682.752L295.111 759.532H349.711Z" fill="white"/>
</mask>
<g mask="url(#mask97_12194_17630)">
<path d="M286.039 635.352L282.399 829.382H277.359L280.999 635.352H286.039Z" fill="white"/>
</g>
<mask id="mask98_12194_17630" style="mask-type:luminance" maskUnits="userSpaceOnUse" x="221" y="635" width="202" height="195">
<path d="M361.351 791.962H283.181L269.871 829.382H221.641L298.971 635.352H345.541L422.871 829.382H374.641L361.351 791.962ZM349.711 759.532L322.551 682.752L295.111 759.532H349.711Z" fill="white"/>
</mask>
<g mask="url(#mask98_12194_17630)">
<path d="M291.092 635.352L287.452 829.382H282.402L286.042 635.352H291.092Z" fill="white"/>
</g>
<mask id="mask99_12194_17630" style="mask-type:luminance" maskUnits="userSpaceOnUse" x="221" y="635" width="202" height="195">
<path d="M361.351 791.962H283.181L269.871 829.382H221.641L298.971 635.352H345.541L422.871 829.382H374.641L361.351 791.962ZM349.711 759.532L322.551 682.752L295.111 759.532H349.711Z" fill="white"/>
</mask>
<g mask="url(#mask99_12194_17630)">
<path d="M296.129 635.352L292.489 829.382H287.449L291.089 635.352H296.129Z" fill="white"/>
</g>
<mask id="mask100_12194_17630" style="mask-type:luminance" maskUnits="userSpaceOnUse" x="221" y="635" width="202" height="195">
<path d="M361.351 791.962H283.181L269.871 829.382H221.641L298.971 635.352H345.541L422.871 829.382H374.641L361.351 791.962ZM349.711 759.532L322.551 682.752L295.111 759.532H349.711Z" fill="white"/>
</mask>
<g mask="url(#mask100_12194_17630)">
<path d="M301.182 635.352L297.532 829.382H292.492L296.132 635.352H301.182Z" fill="white"/>
</g>
<mask id="mask101_12194_17630" style="mask-type:luminance" maskUnits="userSpaceOnUse" x="221" y="635" width="202" height="195">
<path d="M361.351 791.962H283.181L269.871 829.382H221.641L298.971 635.352H345.541L422.871 829.382H374.641L361.351 791.962ZM349.711 759.532L322.551 682.752L295.111 759.532H349.711Z" fill="white"/>
</mask>
<g mask="url(#mask101_12194_17630)">
<path d="M306.221 635.352L302.581 829.382H297.531L301.181 635.352H306.221Z" fill="white"/>
</g>
<mask id="mask102_12194_17630" style="mask-type:luminance" maskUnits="userSpaceOnUse" x="221" y="635" width="202" height="195">
<path d="M361.351 791.962H283.181L269.871 829.382H221.641L298.971 635.352H345.541L422.871 829.382H374.641L361.351 791.962ZM349.711 759.532L322.551 682.752L295.111 759.532H349.711Z" fill="white"/>
</mask>
<g mask="url(#mask102_12194_17630)">
<path d="M311.262 635.352L307.622 829.382H302.582L306.222 635.352H311.262Z" fill="white"/>
</g>
<mask id="mask103_12194_17630" style="mask-type:luminance" maskUnits="userSpaceOnUse" x="221" y="635" width="202" height="195">
<path d="M361.351 791.962H283.181L269.871 829.382H221.641L298.971 635.352H345.541L422.871 829.382H374.641L361.351 791.962ZM349.711 759.532L322.551 682.752L295.111 759.532H349.711Z" fill="white"/>
</mask>
<g mask="url(#mask103_12194_17630)">
<path d="M316.311 635.352L312.661 829.382H307.621L311.261 635.352H316.311Z" fill="white"/>
</g>
<mask id="mask104_12194_17630" style="mask-type:luminance" maskUnits="userSpaceOnUse" x="221" y="635" width="202" height="195">
<path d="M361.351 791.962H283.181L269.871 829.382H221.641L298.971 635.352H345.541L422.871 829.382H374.641L361.351 791.962ZM349.711 759.532L322.551 682.752L295.111 759.532H349.711Z" fill="white"/>
</mask>
<g mask="url(#mask104_12194_17630)">
<path d="M321.35 635.352L317.71 829.382H312.66L316.31 635.352H321.35Z" fill="white"/>
</g>
<mask id="mask105_12194_17630" style="mask-type:luminance" maskUnits="userSpaceOnUse" x="221" y="635" width="202" height="195">
<path d="M361.351 791.962H283.181L269.871 829.382H221.641L298.971 635.352H345.541L422.871 829.382H374.641L361.351 791.962ZM349.711 759.532L322.551 682.752L295.111 759.532H349.711Z" fill="white"/>
</mask>
<g mask="url(#mask105_12194_17630)">
<path d="M326.391 635.352L322.751 829.382H317.711L321.351 635.352H326.391Z" fill="white"/>
</g>
<mask id="mask106_12194_17630" style="mask-type:luminance" maskUnits="userSpaceOnUse" x="221" y="635" width="202" height="195">
<path d="M361.351 791.962H283.181L269.871 829.382H221.641L298.971 635.352H345.541L422.871 829.382H374.641L361.351 791.962ZM349.711 759.532L322.551 682.752L295.111 759.532H349.711Z" fill="white"/>
</mask>
<g mask="url(#mask106_12194_17630)">
<path d="M331.44 635.352L327.79 829.382H322.75L326.39 635.352H331.44Z" fill="white"/>
</g>
<mask id="mask107_12194_17630" style="mask-type:luminance" maskUnits="userSpaceOnUse" x="221" y="635" width="202" height="195">
<path d="M361.351 791.962H283.181L269.871 829.382H221.641L298.971 635.352H345.541L422.871 829.382H374.641L361.351 791.962ZM349.711 759.532L322.551 682.752L295.111 759.532H349.711Z" fill="white"/>
</mask>
<g mask="url(#mask107_12194_17630)">
<path d="M336.479 635.352L332.839 829.382H327.789L331.439 635.352H336.479Z" fill="white"/>
</g>
<mask id="mask108_12194_17630" style="mask-type:luminance" maskUnits="userSpaceOnUse" x="221" y="635" width="202" height="195">
<path d="M361.351 791.962H283.181L269.871 829.382H221.641L298.971 635.352H345.541L422.871 829.382H374.641L361.351 791.962ZM349.711 759.532L322.551 682.752L295.111 759.532H349.711Z" fill="white"/>
</mask>
<g mask="url(#mask108_12194_17630)">
<path d="M341.52 635.352L337.88 829.382H332.84L336.48 635.352H341.52Z" fill="white"/>
</g>
<mask id="mask109_12194_17630" style="mask-type:luminance" maskUnits="userSpaceOnUse" x="221" y="635" width="202" height="195">
<path d="M361.351 791.962H283.181L269.871 829.382H221.641L298.971 635.352H345.541L422.871 829.382H374.641L361.351 791.962ZM349.711 759.532L322.551 682.752L295.111 759.532H349.711Z" fill="white"/>
</mask>
<g mask="url(#mask109_12194_17630)">
<path d="M346.569 635.352L342.929 829.382H337.879L341.519 635.352H346.569Z" fill="white"/>
</g>
<mask id="mask110_12194_17630" style="mask-type:luminance" maskUnits="userSpaceOnUse" x="221" y="635" width="202" height="195">
<path d="M361.351 791.962H283.181L269.871 829.382H221.641L298.971 635.352H345.541L422.871 829.382H374.641L361.351 791.962ZM349.711 759.532L322.551 682.752L295.111 759.532H349.711Z" fill="white"/>
</mask>
<g mask="url(#mask110_12194_17630)">
<path d="M351.61 635.352L347.97 829.382H342.93L346.57 635.352H351.61Z" fill="white"/>
</g>
<mask id="mask111_12194_17630" style="mask-type:luminance" maskUnits="userSpaceOnUse" x="221" y="635" width="202" height="195">
<path d="M361.351 791.962H283.181L269.871 829.382H221.641L298.971 635.352H345.541L422.871 829.382H374.641L361.351 791.962ZM349.711 759.532L322.551 682.752L295.111 759.532H349.711Z" fill="white"/>
</mask>
<g mask="url(#mask111_12194_17630)">
<path d="M356.649 635.352L353.009 829.382H347.969L351.609 635.352H356.649Z" fill="white"/>
</g>
<mask id="mask112_12194_17630" style="mask-type:luminance" maskUnits="userSpaceOnUse" x="221" y="635" width="202" height="195">
<path d="M361.351 791.962H283.181L269.871 829.382H221.641L298.971 635.352H345.541L422.871 829.382H374.641L361.351 791.962ZM349.711 759.532L322.551 682.752L295.111 759.532H349.711Z" fill="white"/>
</mask>
<g mask="url(#mask112_12194_17630)">
<path d="M361.702 635.352L358.062 829.382H353.012L356.652 635.352H361.702Z" fill="white"/>
</g>
<mask id="mask113_12194_17630" style="mask-type:luminance" maskUnits="userSpaceOnUse" x="221" y="635" width="202" height="195">
<path d="M361.351 791.962H283.181L269.871 829.382H221.641L298.971 635.352H345.541L422.871 829.382H374.641L361.351 791.962ZM349.711 759.532L322.551 682.752L295.111 759.532H349.711Z" fill="white"/>
</mask>
<g mask="url(#mask113_12194_17630)">
<path d="M366.742 635.352L363.103 829.382H358.062L361.703 635.352H366.742Z" fill="white"/>
</g>
<mask id="mask114_12194_17630" style="mask-type:luminance" maskUnits="userSpaceOnUse" x="221" y="635" width="202" height="195">
<path d="M361.351 791.962H283.181L269.871 829.382H221.641L298.971 635.352H345.541L422.871 829.382H374.641L361.351 791.962ZM349.711 759.532L322.551 682.752L295.111 759.532H349.711Z" fill="white"/>
</mask>
<g mask="url(#mask114_12194_17630)">
<path d="M371.782 635.352L368.142 829.382H363.102L366.742 635.352H371.782Z" fill="white"/>
</g>
<mask id="mask115_12194_17630" style="mask-type:luminance" maskUnits="userSpaceOnUse" x="221" y="635" width="202" height="195">
<path d="M361.351 791.962H283.181L269.871 829.382H221.641L298.971 635.352H345.541L422.871 829.382H374.641L361.351 791.962ZM349.711 759.532L322.551 682.752L295.111 759.532H349.711Z" fill="white"/>
</mask>
<g mask="url(#mask115_12194_17630)">
<path d="M376.831 635.352L373.191 829.382H368.141L371.781 635.352H376.831Z" fill="white"/>
</g>
<mask id="mask116_12194_17630" style="mask-type:luminance" maskUnits="userSpaceOnUse" x="221" y="635" width="202" height="195">
<path d="M361.351 791.962H283.181L269.871 829.382H221.641L298.971 635.352H345.541L422.871 829.382H374.641L361.351 791.962ZM349.711 759.532L322.551 682.752L295.111 759.532H349.711Z" fill="white"/>
</mask>
<g mask="url(#mask116_12194_17630)">
<path d="M381.871 635.352L378.231 829.382H373.191L376.831 635.352H381.871Z" fill="white"/>
</g>
<mask id="mask117_12194_17630" style="mask-type:luminance" maskUnits="userSpaceOnUse" x="221" y="635" width="202" height="195">
<path d="M361.351 791.962H283.181L269.871 829.382H221.641L298.971 635.352H345.541L422.871 829.382H374.641L361.351 791.962ZM349.711 759.532L322.551 682.752L295.111 759.532H349.711Z" fill="white"/>
</mask>
<g mask="url(#mask117_12194_17630)">
<path d="M386.91 635.352L383.27 829.382H378.23L381.87 635.352H386.91Z" fill="white"/>
</g>
<mask id="mask118_12194_17630" style="mask-type:luminance" maskUnits="userSpaceOnUse" x="221" y="635" width="202" height="195">
<path d="M361.351 791.962H283.181L269.871 829.382H221.641L298.971 635.352H345.541L422.871 829.382H374.641L361.351 791.962ZM349.711 759.532L322.551 682.752L295.111 759.532H349.711Z" fill="white"/>
</mask>
<g mask="url(#mask118_12194_17630)">
<path d="M391.96 635.352L388.32 829.382H383.27L386.91 635.352H391.96Z" fill="white"/>
</g>
<mask id="mask119_12194_17630" style="mask-type:luminance" maskUnits="userSpaceOnUse" x="221" y="635" width="202" height="195">
<path d="M361.351 791.962H283.181L269.871 829.382H221.641L298.971 635.352H345.541L422.871 829.382H374.641L361.351 791.962ZM349.711 759.532L322.551 682.752L295.111 759.532H349.711Z" fill="white"/>
</mask>
<g mask="url(#mask119_12194_17630)">
<path d="M397 635.352L393.36 829.382H388.32L391.96 635.352H397Z" fill="white"/>
</g>
<mask id="mask120_12194_17630" style="mask-type:luminance" maskUnits="userSpaceOnUse" x="221" y="635" width="202" height="195">
<path d="M361.351 791.962H283.181L269.871 829.382H221.641L298.971 635.352H345.541L422.871 829.382H374.641L361.351 791.962ZM349.711 759.532L322.551 682.752L295.111 759.532H349.711Z" fill="white"/>
</mask>
<g mask="url(#mask120_12194_17630)">
<path d="M402.039 635.352L398.399 829.382H393.359L396.999 635.352H402.039Z" fill="white"/>
</g>
<mask id="mask121_12194_17630" style="mask-type:luminance" maskUnits="userSpaceOnUse" x="221" y="635" width="202" height="195">
<path d="M361.351 791.962H283.181L269.871 829.382H221.641L298.971 635.352H345.541L422.871 829.382H374.641L361.351 791.962ZM349.711 759.532L322.551 682.752L295.111 759.532H349.711Z" fill="white"/>
</mask>
<g mask="url(#mask121_12194_17630)">
<path d="M407.092 635.352L403.452 829.382H398.402L402.042 635.352H407.092Z" fill="white"/>
</g>
<mask id="mask122_12194_17630" style="mask-type:luminance" maskUnits="userSpaceOnUse" x="221" y="635" width="202" height="195">
<path d="M361.351 791.962H283.181L269.871 829.382H221.641L298.971 635.352H345.541L422.871 829.382H374.641L361.351 791.962ZM349.711 759.532L322.551 682.752L295.111 759.532H349.711Z" fill="white"/>
</mask>
<g mask="url(#mask122_12194_17630)">
<path d="M412.129 635.352L408.489 829.382H403.449L407.089 635.352H412.129Z" fill="white"/>
</g>
<mask id="mask123_12194_17630" style="mask-type:luminance" maskUnits="userSpaceOnUse" x="221" y="635" width="202" height="195">
<path d="M361.351 791.962H283.181L269.871 829.382H221.641L298.971 635.352H345.541L422.871 829.382H374.641L361.351 791.962ZM349.711 759.532L322.551 682.752L295.111 759.532H349.711Z" fill="white"/>
</mask>
<g mask="url(#mask123_12194_17630)">
<path d="M417.172 635.352L413.532 829.382H408.492L412.132 635.352H417.172Z" fill="white"/>
</g>
<mask id="mask124_12194_17630" style="mask-type:luminance" maskUnits="userSpaceOnUse" x="221" y="635" width="202" height="195">
<path d="M361.351 791.962H283.181L269.871 829.382H221.641L298.971 635.352H345.541L422.871 829.382H374.641L361.351 791.962ZM349.711 759.532L322.551 682.752L295.111 759.532H349.711Z" fill="white"/>
</mask>
<g mask="url(#mask124_12194_17630)">
<path d="M422.221 635.352L418.581 829.382H413.531L417.171 635.352H422.221Z" fill="white"/>
</g>
<mask id="mask125_12194_17630" style="mask-type:luminance" maskUnits="userSpaceOnUse" x="221" y="635" width="202" height="195">
<path d="M361.351 791.962H283.181L269.871 829.382H221.641L298.971 635.352H345.541L422.871 829.382H374.641L361.351 791.962ZM349.711 759.532L322.551 682.752L295.111 759.532H349.711Z" fill="white"/>
</mask>
<g mask="url(#mask125_12194_17630)">
<path d="M418.582 829.382L422.222 635.352H422.892V829.382H418.582Z" fill="white"/>
</g>
<mask id="mask126_12194_17630" style="mask-type:luminance" maskUnits="userSpaceOnUse" x="385" y="635" width="192" height="195">
<path d="M480.806 776.162L529.306 635.352H576.706L504.086 829.382H457.526L385.176 635.352H432.576L480.806 776.162Z" fill="white"/>
</mask>
<g mask="url(#mask126_12194_17630)">
<path d="M386.906 635.352L385.176 727.862V635.352H386.906Z" fill="white"/>
</g>
<mask id="mask127_12194_17630" style="mask-type:luminance" maskUnits="userSpaceOnUse" x="385" y="635" width="192" height="195">
<path d="M480.806 776.162L529.306 635.352H576.706L504.086 829.382H457.526L385.176 635.352H432.576L480.806 776.162Z" fill="white"/>
</mask>
<g mask="url(#mask127_12194_17630)">
<path d="M391.956 635.352L388.316 829.382H385.176V727.862L386.906 635.352H391.956Z" fill="white"/>
</g>
<mask id="mask128_12194_17630" style="mask-type:luminance" maskUnits="userSpaceOnUse" x="385" y="635" width="192" height="195">
<path d="M480.806 776.162L529.306 635.352H576.706L504.086 829.382H457.526L385.176 635.352H432.576L480.806 776.162Z" fill="white"/>
</mask>
<g mask="url(#mask128_12194_17630)">
<path d="M396.996 635.352L393.356 829.382H388.316L391.956 635.352H396.996Z" fill="white"/>
</g>
<mask id="mask129_12194_17630" style="mask-type:luminance" maskUnits="userSpaceOnUse" x="385" y="635" width="192" height="195">
<path d="M480.806 776.162L529.306 635.352H576.706L504.086 829.382H457.526L385.176 635.352H432.576L480.806 776.162Z" fill="white"/>
</mask>
<g mask="url(#mask129_12194_17630)">
<path d="M402.035 635.352L398.395 829.382H393.355L396.995 635.352H402.035Z" fill="white"/>
</g>
<mask id="mask130_12194_17630" style="mask-type:luminance" maskUnits="userSpaceOnUse" x="385" y="635" width="192" height="195">
<path d="M480.806 776.162L529.306 635.352H576.706L504.086 829.382H457.526L385.176 635.352H432.576L480.806 776.162Z" fill="white"/>
</mask>
<g mask="url(#mask130_12194_17630)">
<path d="M407.085 635.352L403.445 829.382H398.395L402.035 635.352H407.085Z" fill="white"/>
</g>
<mask id="mask131_12194_17630" style="mask-type:luminance" maskUnits="userSpaceOnUse" x="385" y="635" width="192" height="195">
<path d="M480.806 776.162L529.306 635.352H576.706L504.086 829.382H457.526L385.176 635.352H432.576L480.806 776.162Z" fill="white"/>
</mask>
<g mask="url(#mask131_12194_17630)">
<path d="M412.125 635.352L408.485 829.382H403.445L407.085 635.352H412.125Z" fill="white"/>
</g>
<mask id="mask132_12194_17630" style="mask-type:luminance" maskUnits="userSpaceOnUse" x="385" y="635" width="192" height="195">
<path d="M480.806 776.162L529.306 635.352H576.706L504.086 829.382H457.526L385.176 635.352H432.576L480.806 776.162Z" fill="white"/>
</mask>
<g mask="url(#mask132_12194_17630)">
<path d="M417.164 635.352L413.524 829.382H408.484L412.124 635.352H417.164Z" fill="white"/>
</g>
<mask id="mask133_12194_17630" style="mask-type:luminance" maskUnits="userSpaceOnUse" x="385" y="635" width="192" height="195">
<path d="M480.806 776.162L529.306 635.352H576.706L504.086 829.382H457.526L385.176 635.352H432.576L480.806 776.162Z" fill="white"/>
</mask>
<g mask="url(#mask133_12194_17630)">
<path d="M422.217 635.352L418.577 829.382H413.527L417.167 635.352H422.217Z" fill="white"/>
</g>
<mask id="mask134_12194_17630" style="mask-type:luminance" maskUnits="userSpaceOnUse" x="385" y="635" width="192" height="195">
<path d="M480.806 776.162L529.306 635.352H576.706L504.086 829.382H457.526L385.176 635.352H432.576L480.806 776.162Z" fill="white"/>
</mask>
<g mask="url(#mask134_12194_17630)">
<path d="M427.254 635.352L423.614 829.382H418.574L422.214 635.352H427.254Z" fill="white"/>
</g>
<mask id="mask135_12194_17630" style="mask-type:luminance" maskUnits="userSpaceOnUse" x="385" y="635" width="192" height="195">
<path d="M480.806 776.162L529.306 635.352H576.706L504.086 829.382H457.526L385.176 635.352H432.576L480.806 776.162Z" fill="white"/>
</mask>
<g mask="url(#mask135_12194_17630)">
<path d="M432.307 635.352L428.657 829.382H423.617L427.257 635.352H432.307Z" fill="white"/>
</g>
<mask id="mask136_12194_17630" style="mask-type:luminance" maskUnits="userSpaceOnUse" x="385" y="635" width="192" height="195">
<path d="M480.806 776.162L529.306 635.352H576.706L504.086 829.382H457.526L385.176 635.352H432.576L480.806 776.162Z" fill="white"/>
</mask>
<g mask="url(#mask136_12194_17630)">
<path d="M437.346 635.352L433.706 829.382H428.656L432.306 635.352H437.346Z" fill="white"/>
</g>
<mask id="mask137_12194_17630" style="mask-type:luminance" maskUnits="userSpaceOnUse" x="385" y="635" width="192" height="195">
<path d="M480.806 776.162L529.306 635.352H576.706L504.086 829.382H457.526L385.176 635.352H432.576L480.806 776.162Z" fill="white"/>
</mask>
<g mask="url(#mask137_12194_17630)">
<path d="M442.387 635.352L438.747 829.382H433.707L437.347 635.352H442.387Z" fill="white"/>
</g>
<mask id="mask138_12194_17630" style="mask-type:luminance" maskUnits="userSpaceOnUse" x="385" y="635" width="192" height="195">
<path d="M480.806 776.162L529.306 635.352H576.706L504.086 829.382H457.526L385.176 635.352H432.576L480.806 776.162Z" fill="white"/>
</mask>
<g mask="url(#mask138_12194_17630)">
<path d="M447.436 635.352L443.786 829.382H438.746L442.386 635.352H447.436Z" fill="white"/>
</g>
<mask id="mask139_12194_17630" style="mask-type:luminance" maskUnits="userSpaceOnUse" x="385" y="635" width="192" height="195">
<path d="M480.806 776.162L529.306 635.352H576.706L504.086 829.382H457.526L385.176 635.352H432.576L480.806 776.162Z" fill="white"/>
</mask>
<g mask="url(#mask139_12194_17630)">
<path d="M452.475 635.352L448.835 829.382H443.785L447.435 635.352H452.475Z" fill="white"/>
</g>
<mask id="mask140_12194_17630" style="mask-type:luminance" maskUnits="userSpaceOnUse" x="385" y="635" width="192" height="195">
<path d="M480.806 776.162L529.306 635.352H576.706L504.086 829.382H457.526L385.176 635.352H432.576L480.806 776.162Z" fill="white"/>
</mask>
<g mask="url(#mask140_12194_17630)">
<path d="M457.516 635.352L453.876 829.382H448.836L452.476 635.352H457.516Z" fill="white"/>
</g>
<mask id="mask141_12194_17630" style="mask-type:luminance" maskUnits="userSpaceOnUse" x="385" y="635" width="192" height="195">
<path d="M480.806 776.162L529.306 635.352H576.706L504.086 829.382H457.526L385.176 635.352H432.576L480.806 776.162Z" fill="white"/>
</mask>
<g mask="url(#mask141_12194_17630)">
<path d="M462.565 635.352L458.915 829.382H453.875L457.515 635.352H462.565Z" fill="white"/>
</g>
<mask id="mask142_12194_17630" style="mask-type:luminance" maskUnits="userSpaceOnUse" x="385" y="635" width="192" height="195">
<path d="M480.806 776.162L529.306 635.352H576.706L504.086 829.382H457.526L385.176 635.352H432.576L480.806 776.162Z" fill="white"/>
</mask>
<g mask="url(#mask142_12194_17630)">
<path d="M467.604 635.352L463.964 829.382H458.914L462.564 635.352H467.604Z" fill="white"/>
</g>
<mask id="mask143_12194_17630" style="mask-type:luminance" maskUnits="userSpaceOnUse" x="385" y="635" width="192" height="195">
<path d="M480.806 776.162L529.306 635.352H576.706L504.086 829.382H457.526L385.176 635.352H432.576L480.806 776.162Z" fill="white"/>
</mask>
<g mask="url(#mask143_12194_17630)">
<path d="M472.645 635.352L469.005 829.382H463.965L467.605 635.352H472.645Z" fill="white"/>
</g>
<mask id="mask144_12194_17630" style="mask-type:luminance" maskUnits="userSpaceOnUse" x="385" y="635" width="192" height="195">
<path d="M480.806 776.162L529.306 635.352H576.706L504.086 829.382H457.526L385.176 635.352H432.576L480.806 776.162Z" fill="white"/>
</mask>
<g mask="url(#mask144_12194_17630)">
<path d="M477.694 635.352L474.054 829.382H469.004L472.644 635.352H477.694Z" fill="white"/>
</g>
<mask id="mask145_12194_17630" style="mask-type:luminance" maskUnits="userSpaceOnUse" x="385" y="635" width="192" height="195">
<path d="M480.806 776.162L529.306 635.352H576.706L504.086 829.382H457.526L385.176 635.352H432.576L480.806 776.162Z" fill="white"/>
</mask>
<g mask="url(#mask145_12194_17630)">
<path d="M482.735 635.352L479.095 829.382H474.055L477.695 635.352H482.735Z" fill="white"/>
</g>
<mask id="mask146_12194_17630" style="mask-type:luminance" maskUnits="userSpaceOnUse" x="385" y="635" width="192" height="195">
<path d="M480.806 776.162L529.306 635.352H576.706L504.086 829.382H457.526L385.176 635.352H432.576L480.806 776.162Z" fill="white"/>
</mask>
<g mask="url(#mask146_12194_17630)">
<path d="M487.778 635.352L484.138 829.382H479.098L482.738 635.352H487.778Z" fill="white"/>
</g>
<mask id="mask147_12194_17630" style="mask-type:luminance" maskUnits="userSpaceOnUse" x="385" y="635" width="192" height="195">
<path d="M480.806 776.162L529.306 635.352H576.706L504.086 829.382H457.526L385.176 635.352H432.576L480.806 776.162Z" fill="white"/>
</mask>
<g mask="url(#mask147_12194_17630)">
<path d="M492.827 635.352L489.187 829.382H484.137L487.777 635.352H492.827Z" fill="white"/>
</g>
<mask id="mask148_12194_17630" style="mask-type:luminance" maskUnits="userSpaceOnUse" x="385" y="635" width="192" height="195">
<path d="M480.806 776.162L529.306 635.352H576.706L504.086 829.382H457.526L385.176 635.352H432.576L480.806 776.162Z" fill="white"/>
</mask>
<g mask="url(#mask148_12194_17630)">
<path d="M497.867 635.352L494.228 829.382H489.188L492.827 635.352H497.867Z" fill="white"/>
</g>
<mask id="mask149_12194_17630" style="mask-type:luminance" maskUnits="userSpaceOnUse" x="385" y="635" width="192" height="195">
<path d="M480.806 776.162L529.306 635.352H576.706L504.086 829.382H457.526L385.176 635.352H432.576L480.806 776.162Z" fill="white"/>
</mask>
<g mask="url(#mask149_12194_17630)">
<path d="M502.907 635.352L499.267 829.382H494.227L497.867 635.352H502.907Z" fill="white"/>
</g>
<mask id="mask150_12194_17630" style="mask-type:luminance" maskUnits="userSpaceOnUse" x="385" y="635" width="192" height="195">
<path d="M480.806 776.162L529.306 635.352H576.706L504.086 829.382H457.526L385.176 635.352H432.576L480.806 776.162Z" fill="white"/>
</mask>
<g mask="url(#mask150_12194_17630)">
<path d="M507.956 635.352L504.316 829.382H499.266L502.906 635.352H507.956Z" fill="white"/>
</g>
<mask id="mask151_12194_17630" style="mask-type:luminance" maskUnits="userSpaceOnUse" x="385" y="635" width="192" height="195">
<path d="M480.806 776.162L529.306 635.352H576.706L504.086 829.382H457.526L385.176 635.352H432.576L480.806 776.162Z" fill="white"/>
</mask>
<g mask="url(#mask151_12194_17630)">
<path d="M512.996 635.352L509.356 829.382H504.316L507.956 635.352H512.996Z" fill="white"/>
</g>
<mask id="mask152_12194_17630" style="mask-type:luminance" maskUnits="userSpaceOnUse" x="385" y="635" width="192" height="195">
<path d="M480.806 776.162L529.306 635.352H576.706L504.086 829.382H457.526L385.176 635.352H432.576L480.806 776.162Z" fill="white"/>
</mask>
<g mask="url(#mask152_12194_17630)">
<path d="M518.035 635.352L514.396 829.382H509.355L512.995 635.352H518.035Z" fill="white"/>
</g>
<mask id="mask153_12194_17630" style="mask-type:luminance" maskUnits="userSpaceOnUse" x="385" y="635" width="192" height="195">
<path d="M480.806 776.162L529.306 635.352H576.706L504.086 829.382H457.526L385.176 635.352H432.576L480.806 776.162Z" fill="white"/>
</mask>
<g mask="url(#mask153_12194_17630)">
<path d="M523.085 635.352L519.445 829.382H514.395L518.034 635.352H523.085Z" fill="white"/>
</g>
<mask id="mask154_12194_17630" style="mask-type:luminance" maskUnits="userSpaceOnUse" x="385" y="635" width="192" height="195">
<path d="M480.806 776.162L529.306 635.352H576.706L504.086 829.382H457.526L385.176 635.352H432.576L480.806 776.162Z" fill="white"/>
</mask>
<g mask="url(#mask154_12194_17630)">
<path d="M528.125 635.352L524.485 829.382H519.445L523.085 635.352H528.125Z" fill="white"/>
</g>
<mask id="mask155_12194_17630" style="mask-type:luminance" maskUnits="userSpaceOnUse" x="385" y="635" width="192" height="195">
<path d="M480.806 776.162L529.306 635.352H576.706L504.086 829.382H457.526L385.176 635.352H432.576L480.806 776.162Z" fill="white"/>
</mask>
<g mask="url(#mask155_12194_17630)">
<path d="M533.164 635.352L529.524 829.382H524.484L528.124 635.352H533.164Z" fill="white"/>
</g>
<mask id="mask156_12194_17630" style="mask-type:luminance" maskUnits="userSpaceOnUse" x="385" y="635" width="192" height="195">
<path d="M480.806 776.162L529.306 635.352H576.706L504.086 829.382H457.526L385.176 635.352H432.576L480.806 776.162Z" fill="white"/>
</mask>
<g mask="url(#mask156_12194_17630)">
<path d="M538.217 635.352L534.577 829.382H529.527L533.167 635.352H538.217Z" fill="white"/>
</g>
<mask id="mask157_12194_17630" style="mask-type:luminance" maskUnits="userSpaceOnUse" x="385" y="635" width="192" height="195">
<path d="M480.806 776.162L529.306 635.352H576.706L504.086 829.382H457.526L385.176 635.352H432.576L480.806 776.162Z" fill="white"/>
</mask>
<g mask="url(#mask157_12194_17630)">
<path d="M543.254 635.352L539.614 829.382H534.574L538.214 635.352H543.254Z" fill="white"/>
</g>
<mask id="mask158_12194_17630" style="mask-type:luminance" maskUnits="userSpaceOnUse" x="385" y="635" width="192" height="195">
<path d="M480.806 776.162L529.306 635.352H576.706L504.086 829.382H457.526L385.176 635.352H432.576L480.806 776.162Z" fill="white"/>
</mask>
<g mask="url(#mask158_12194_17630)">
<path d="M548.297 635.352L544.657 829.382H539.617L543.257 635.352H548.297Z" fill="white"/>
</g>
<mask id="mask159_12194_17630" style="mask-type:luminance" maskUnits="userSpaceOnUse" x="385" y="635" width="192" height="195">
<path d="M480.806 776.162L529.306 635.352H576.706L504.086 829.382H457.526L385.176 635.352H432.576L480.806 776.162Z" fill="white"/>
</mask>
<g mask="url(#mask159_12194_17630)">
<path d="M553.346 635.352L549.706 829.382H544.656L548.296 635.352H553.346Z" fill="white"/>
</g>
<mask id="mask160_12194_17630" style="mask-type:luminance" maskUnits="userSpaceOnUse" x="385" y="635" width="192" height="195">
<path d="M480.806 776.162L529.306 635.352H576.706L504.086 829.382H457.526L385.176 635.352H432.576L480.806 776.162Z" fill="white"/>
</mask>
<g mask="url(#mask160_12194_17630)">
<path d="M558.387 635.352L554.747 829.382H549.707L553.347 635.352H558.387Z" fill="white"/>
</g>
<mask id="mask161_12194_17630" style="mask-type:luminance" maskUnits="userSpaceOnUse" x="385" y="635" width="192" height="195">
<path d="M480.806 776.162L529.306 635.352H576.706L504.086 829.382H457.526L385.176 635.352H432.576L480.806 776.162Z" fill="white"/>
</mask>
<g mask="url(#mask161_12194_17630)">
<path d="M563.436 635.352L559.786 829.382H554.746L558.386 635.352H563.436Z" fill="white"/>
</g>
<mask id="mask162_12194_17630" style="mask-type:luminance" maskUnits="userSpaceOnUse" x="385" y="635" width="192" height="195">
<path d="M480.806 776.162L529.306 635.352H576.706L504.086 829.382H457.526L385.176 635.352H432.576L480.806 776.162Z" fill="white"/>
</mask>
<g mask="url(#mask162_12194_17630)">
<path d="M568.475 635.352L564.835 829.382H559.785L563.435 635.352H568.475Z" fill="white"/>
</g>
<mask id="mask163_12194_17630" style="mask-type:luminance" maskUnits="userSpaceOnUse" x="385" y="635" width="192" height="195">
<path d="M480.806 776.162L529.306 635.352H576.706L504.086 829.382H457.526L385.176 635.352H432.576L480.806 776.162Z" fill="white"/>
</mask>
<g mask="url(#mask163_12194_17630)">
<path d="M573.516 635.352L569.876 829.382H564.836L568.476 635.352H573.516Z" fill="white"/>
</g>
<mask id="mask164_12194_17630" style="mask-type:luminance" maskUnits="userSpaceOnUse" x="385" y="635" width="192" height="195">
<path d="M480.806 776.162L529.306 635.352H576.706L504.086 829.382H457.526L385.176 635.352H432.576L480.806 776.162Z" fill="white"/>
</mask>
<g mask="url(#mask164_12194_17630)">
<path d="M576.705 734.172L574.915 829.382H569.875L573.515 635.352H576.705V734.172Z" fill="white"/>
</g>
<mask id="mask165_12194_17630" style="mask-type:luminance" maskUnits="userSpaceOnUse" x="385" y="635" width="192" height="195">
<path d="M480.806 776.162L529.306 635.352H576.706L504.086 829.382H457.526L385.176 635.352H432.576L480.806 776.162Z" fill="white"/>
</mask>
<g mask="url(#mask165_12194_17630)">
<path d="M574.914 829.382L576.704 734.172V829.382H574.914Z" fill="white"/>
</g>
<mask id="mask166_12194_17630" style="mask-type:luminance" maskUnits="userSpaceOnUse" x="594" y="635" width="46" height="195">
<path d="M639.057 829.382H594.707V635.352H639.057V829.382Z" fill="white"/>
</mask>
<g mask="url(#mask166_12194_17630)">
<path d="M598.737 635.352L595.097 829.382H594.707V635.352H598.737Z" fill="white"/>
</g>
<mask id="mask167_12194_17630" style="mask-type:luminance" maskUnits="userSpaceOnUse" x="594" y="635" width="46" height="195">
<path d="M639.057 829.382H594.707V635.352H639.057V829.382Z" fill="white"/>
</mask>
<g mask="url(#mask167_12194_17630)">
<path d="M603.778 635.352L600.138 829.382H595.098L598.738 635.352H603.778Z" fill="white"/>
</g>
<mask id="mask168_12194_17630" style="mask-type:luminance" maskUnits="userSpaceOnUse" x="594" y="635" width="46" height="195">
<path d="M639.057 829.382H594.707V635.352H639.057V829.382Z" fill="white"/>
</mask>
<g mask="url(#mask168_12194_17630)">
<path d="M608.827 635.352L605.187 829.382H600.137L603.777 635.352H608.827Z" fill="white"/>
</g>
<mask id="mask169_12194_17630" style="mask-type:luminance" maskUnits="userSpaceOnUse" x="594" y="635" width="46" height="195">
<path d="M639.057 829.382H594.707V635.352H639.057V829.382Z" fill="white"/>
</mask>
<g mask="url(#mask169_12194_17630)">
<path d="M613.867 635.352L610.227 829.382H605.188L608.828 635.352H613.867Z" fill="white"/>
</g>
<mask id="mask170_12194_17630" style="mask-type:luminance" maskUnits="userSpaceOnUse" x="594" y="635" width="46" height="195">
<path d="M639.057 829.382H594.707V635.352H639.057V829.382Z" fill="white"/>
</mask>
<g mask="url(#mask170_12194_17630)">
<path d="M618.907 635.352L615.267 829.382H610.227L613.867 635.352H618.907Z" fill="white"/>
</g>
<mask id="mask171_12194_17630" style="mask-type:luminance" maskUnits="userSpaceOnUse" x="594" y="635" width="46" height="195">
<path d="M639.057 829.382H594.707V635.352H639.057V829.382Z" fill="white"/>
</mask>
<g mask="url(#mask171_12194_17630)">
<path d="M623.956 635.352L620.316 829.382H615.266L618.906 635.352H623.956Z" fill="white"/>
</g>
<mask id="mask172_12194_17630" style="mask-type:luminance" maskUnits="userSpaceOnUse" x="594" y="635" width="46" height="195">
<path d="M639.057 829.382H594.707V635.352H639.057V829.382Z" fill="white"/>
</mask>
<g mask="url(#mask172_12194_17630)">
<path d="M628.996 635.352L625.356 829.382H620.316L623.956 635.352H628.996Z" fill="white"/>
</g>
<mask id="mask173_12194_17630" style="mask-type:luminance" maskUnits="userSpaceOnUse" x="594" y="635" width="46" height="195">
<path d="M639.057 829.382H594.707V635.352H639.057V829.382Z" fill="white"/>
</mask>
<g mask="url(#mask173_12194_17630)">
<path d="M634.035 635.352L630.396 829.382H625.355L628.995 635.352H634.035Z" fill="white"/>
</g>
<mask id="mask174_12194_17630" style="mask-type:luminance" maskUnits="userSpaceOnUse" x="594" y="635" width="46" height="195">
<path d="M639.057 829.382H594.707V635.352H639.057V829.382Z" fill="white"/>
</mask>
<g mask="url(#mask174_12194_17630)">
<path d="M639.058 636.742L635.448 829.382H630.398L634.038 635.352H639.058V636.742Z" fill="white"/>
</g>
<mask id="mask175_12194_17630" style="mask-type:luminance" maskUnits="userSpaceOnUse" x="594" y="635" width="46" height="195">
<path d="M639.057 829.382H594.707V635.352H639.057V829.382Z" fill="white"/>
</mask>
<g mask="url(#mask175_12194_17630)">
<path d="M635.445 829.382L639.055 636.742V829.382H635.445Z" fill="white"/>
</g>
<path d="M489.691 285.928C620.901 237.208 771.911 276.248 863.181 382.208C915.701 443.188 943.321 520.618 944.491 600.748C944.761 619.428 973.821 619.388 973.541 600.658C971.331 448.848 877.311 311.918 734.521 258.458C590.541 204.558 422.121 250.318 324.891 369.198C282.921 420.508 256.401 481.248 246.201 545.708C244.801 554.548 251.661 562.568 260.611 562.568C267.691 562.568 273.791 557.478 274.931 550.488C294.181 431.968 374.451 328.718 489.691 285.928Z" fill="white"/>
<path d="M598.021 200.998C813.071 196.148 999.031 368.828 1008.04 584.238C1013.71 719.808 949.721 849.078 840.111 928.478C825.101 939.348 839.671 964.518 854.861 953.518C1056.54 807.428 1097.44 517.038 936.251 324.768C787.461 147.298 515.671 122.798 336.281 268.228C250.401 337.848 196.291 437.988 181.581 546.018C180.391 554.768 187.181 562.578 196.011 562.578C203.181 562.578 209.391 557.368 210.371 550.268C236.991 358.848 399.091 205.478 598.021 200.998Z" fill="white"/>
<path d="M1100.19 567.773C1088.64 404.663 995.101 254.803 853.191 173.293C710.851 91.5228 532.631 86.9428 385.951 160.303C236.511 235.043 137.161 382.303 117.301 545.573C116.321 553.603 121.761 561.503 129.791 562.483C137.981 563.473 145.031 557.583 145.971 549.643C161.901 415.623 234.311 292.403 347.921 216.113C476.021 130.083 642.591 113.083 785.301 172.153C924.161 229.633 1028.66 354.323 1061.36 500.913C1095.28 652.963 1048.74 815.523 939.891 926.803C821.241 1048.1 644.761 1093.06 483.711 1049.62C483.711 1049.62 472.271 1047.36 468.711 1059.42C465.051 1071.81 474.671 1076.77 474.671 1076.77C622.891 1117.03 783.931 1089.16 907.961 993.733C1038.07 893.593 1111.81 731.843 1100.19 567.773Z" fill="white"/>
</svg>
