<svg width="134" height="134" viewBox="0 0 134 134" fill="none" xmlns="http://www.w3.org/2000/svg">
    <circle cx="67" cy="67" r="65.5" fill="#8AC540" stroke="#8AC540" stroke-width="1" />
    <path
        d="M84.1102 46.8981C84.1102 56.2307 76.5447 63.7964 67.2121 63.7964C57.8795 63.7964 50.314 56.2307 50.314 46.8981C50.314 37.5655 57.8795 30 67.2121 30C75.9616 30 83.1576 36.6494 84.0231 45.1704C84.0806 45.7384 84.1102 46.3148 84.1102 46.8981Z"
        fill="white" />
    <path
        d="M37.5701 91.5064C41.2608 80.8347 50.1437 67.4487 67.2113 67.4487C84.2788 67.4487 93.162 80.8347 96.8525 91.5064C98.1011 95.117 97.2096 98.5642 95.0463 101.057C92.9152 103.513 89.6021 105 85.987 105H48.4356C44.8204 105 41.5074 103.513 39.3763 101.057C37.213 98.5642 36.3214 95.117 37.5701 91.5064Z"
        fill="white" />
</svg>
