<svg width="25" height="26" viewBox="0 0 25 26" fill="none" xmlns="http://www.w3.org/2000/svg">
<path d="M12.1836 0.751183C12.3526 0.544629 12.5618 0.372869 12.7991 0.245843C13.0365 0.118817 13.2972 0.039049 13.5663 0.0111563C13.8354 -0.0167365 14.1075 0.0077999 14.3668 0.0833453C14.6262 0.158891 14.8676 0.283945 15.0771 0.451268L21.7521 5.77775C22.1192 6.07061 22.3709 6.47889 22.4642 6.93288C22.5575 7.38687 22.4866 7.85842 22.2637 8.26705C21.6801 8.09277 21.0732 8.00449 20.463 8.00512H19.8491L20.4589 7.32531L16.9433 4.52011L14.0437 8.00712H11.4061L15.3575 3.25647L13.7818 1.99883L8.87479 8.00512H6.25553L12.1836 0.751183ZM17.3935 18.0023C17.1222 18.0023 16.8619 18.1076 16.67 18.2951C16.4782 18.4826 16.3704 18.7368 16.3704 19.002C16.3704 19.2671 16.4782 19.5214 16.67 19.7089C16.8619 19.8964 17.1222 20.0017 17.3935 20.0017H19.4398C19.7112 20.0017 19.9714 19.8964 20.1633 19.7089C20.3552 19.5214 20.463 19.2671 20.463 19.002C20.463 18.7368 20.3552 18.4826 20.1633 18.2951C19.9714 18.1076 19.7112 18.0023 19.4398 18.0023H17.3935ZM2.0463 9.00484C2.0463 8.73969 2.15409 8.48541 2.34597 8.29793C2.53785 8.11045 2.79809 8.00512 3.06944 8.00512H4.21128L5.83808 6.00569H3.06944C2.25538 6.00569 1.47465 6.32167 0.89902 6.88412C0.323387 7.44657 0 8.20941 0 9.00484V21.0014C0 22.3271 0.538978 23.5985 1.49837 24.5359C2.45775 25.4734 3.75896 26 5.11574 26H20.463C21.5484 26 22.5894 25.5787 23.3569 24.8288C24.1244 24.0788 24.5556 23.0617 24.5556 22.0011V14.0034C24.5556 12.9428 24.1244 11.9257 23.3569 11.1758C22.5894 10.4259 21.5484 10.0045 20.463 10.0045H3.06944C2.79809 10.0045 2.53785 9.89922 2.34597 9.71174C2.15409 9.52426 2.0463 9.26998 2.0463 9.00484ZM2.0463 21.0014V11.834C2.36552 11.944 2.71134 12.004 3.06944 12.004H20.463C21.0057 12.004 21.5262 12.2146 21.9099 12.5896C22.2937 12.9646 22.5093 13.4731 22.5093 14.0034V22.0011C22.5093 22.5314 22.2937 23.04 21.9099 23.4149C21.5262 23.7899 21.0057 24.0006 20.463 24.0006H5.11574C4.30167 24.0006 3.52095 23.6846 2.94532 23.1221C2.36968 22.5597 2.0463 21.7968 2.0463 21.0014Z" fill="#868E96"/>
</svg>
